<svg preserveAspectRatio="none" width="100%" height="100%" overflow="visible" style="display: block;" viewBox="0 0 124 15" fill="none" xmlns="http://www.w3.org/2000/svg">
<g id="Amsterdam-black 1" clip-path="url(#clip0_3301_324)">
<path id="Vector" fill-rule="evenodd" clip-rule="evenodd" d="M13.3344 1.89177H6.22274C3.44063 1.89177 1.18528 4.14711 1.18528 6.92922C1.18528 9.71134 3.44063 11.9667 6.22274 11.9667H13.3344C16.1166 11.9667 18.3719 9.71134 18.3719 6.92922C18.3719 4.14711 16.1166 1.89177 13.3344 1.89177ZM6.22274 0.706485C2.78602 0.706485 0 3.49249 0 6.92922C0 10.366 2.78602 13.152 6.22274 13.152H13.3344C16.7712 13.152 19.5571 10.366 19.5571 6.92922C19.5571 3.49249 16.7712 0.706485 13.3344 0.706485H6.22274Z" fill="var(--fill-0, white)"/>
<path id="Vector_2" d="M19.5571 6.92922C19.5571 10.366 16.7712 13.152 13.3345 13.152C9.89777 13.152 7.11175 10.366 7.11175 6.92922C7.11175 3.49249 9.89777 0.706485 13.3345 0.706485C16.7712 0.706485 19.5571 3.49249 19.5571 6.92922Z" fill="var(--fill-0, white)"/>
<path id="Vector_3" d="M23.0002 14.1609L27.4649 0H30.9362L35.4009 14.1609H32.9622L28.9105 1.45543H29.4415L25.4391 14.1609H23.0002ZM25.4883 11.0927V8.88009H32.9228V11.0927H25.4883Z" fill="var(--fill-0, white)"/>
<path id="Vector_4" d="M48.7535 14.1609V7.70984C48.7535 6.98213 48.5731 6.41504 48.2125 6.00857C47.8521 5.59553 47.3637 5.38902 46.7474 5.38902C46.3672 5.38902 46.0262 5.47752 45.7247 5.65454C45.423 5.825 45.1837 6.08067 45.0067 6.42159C44.8297 6.75594 44.7412 7.15586 44.7412 7.62134L43.689 7.00179C43.6824 6.26753 43.8464 5.62176 44.1806 5.0645C44.5216 4.50069 44.9805 4.06143 45.5575 3.74674C46.1344 3.43205 46.7769 3.27472 47.4849 3.27472C48.6584 3.27472 49.5566 3.62873 50.1794 4.33679C50.8088 5.03827 51.1235 5.96267 51.1235 7.10997V14.1609H48.7535ZM35.9791 14.1609V3.54023H38.0738V6.83462H38.3688V14.1609H35.9791ZM42.381 14.1609V7.73935C42.381 6.99852 42.2008 6.42159 41.8402 6.00857C41.4796 5.59553 40.9879 5.38902 40.3651 5.38902C39.7619 5.38902 39.2768 5.59553 38.9097 6.00857C38.5491 6.42159 38.3688 6.95918 38.3688 7.62134L37.3067 6.91329C37.3067 6.22491 37.4772 5.60538 37.8181 5.05467C38.1591 4.50396 38.618 4.07126 39.1949 3.75657C39.7783 3.43535 40.4306 3.27472 41.1518 3.27472C41.9451 3.27472 42.6072 3.44518 43.1384 3.78608C43.676 4.12045 44.0757 4.57936 44.338 5.16285C44.6068 5.73977 44.7412 6.39209 44.7412 7.1198V14.1609H42.381Z" fill="var(--fill-0, white)"/>
<path id="Vector_5" d="M56.6092 14.456C55.2979 14.456 54.2327 14.1609 53.4132 13.5709C52.5937 12.9809 52.0954 12.1515 51.9184 11.0829L54.3375 10.7092C54.462 11.2337 54.7375 11.6467 55.1636 11.9483C55.5897 12.2499 56.1273 12.4007 56.7763 12.4007C57.3466 12.4007 57.7859 12.2892 58.0942 12.0663C58.4088 11.8368 58.5661 11.5254 58.5661 11.1321C58.5661 10.8895 58.5071 10.6961 58.3891 10.5519C58.2776 10.4011 58.0285 10.2568 57.6417 10.1192C57.2549 9.9815 56.6616 9.80776 55.8618 9.59797C54.9702 9.36195 54.262 9.10955 53.7376 8.84075C53.2132 8.5654 52.8362 8.24088 52.6067 7.86719C52.3773 7.4935 52.2625 7.04113 52.2625 6.5101C52.2625 5.84795 52.4363 5.27101 52.7837 4.77932C53.1313 4.28762 53.6163 3.91064 54.2392 3.64841C54.862 3.37961 55.5963 3.24522 56.442 3.24522C57.2681 3.24522 57.9991 3.37306 58.635 3.62873C59.2775 3.88443 59.7953 4.24828 60.1887 4.72032C60.582 5.19234 60.8247 5.74632 60.9164 6.38226L58.4973 6.81496C58.4382 6.36258 58.2318 6.00528 57.8778 5.74305C57.5302 5.4808 57.0647 5.3333 56.4814 5.30052C55.924 5.26774 55.4749 5.35296 55.1341 5.5562C54.7932 5.75288 54.6226 6.03151 54.6226 6.39209C54.6226 6.59532 54.6915 6.76907 54.8292 6.91329C54.9669 7.05753 55.2422 7.20175 55.6553 7.34599C56.0748 7.49021 56.6977 7.66723 57.5238 7.87702C58.3695 8.09338 59.0447 8.3425 59.5496 8.62441C60.0608 8.89976 60.428 9.23084 60.6509 9.61763C60.8803 10.0044 60.9951 10.4732 60.9951 11.0239C60.9951 12.0925 60.605 12.9317 59.8249 13.5414C59.0513 14.1511 57.9793 14.456 56.6092 14.456Z" fill="var(--fill-0, white)"/>
<path id="Vector_6" d="M68.1939 14.1609C67.4925 14.2921 66.804 14.3478 66.1288 14.3281C65.4601 14.315 64.8602 14.1937 64.3292 13.9643C63.7982 13.7282 63.3948 13.3578 63.1195 12.853C62.877 12.3941 62.7491 11.9253 62.736 11.4468C62.723 10.9682 62.7164 10.4273 62.7164 9.82416V0.590039H65.0765V9.68647C65.0765 10.1126 65.0798 10.4863 65.0863 10.8075C65.0995 11.1288 65.1683 11.391 65.2929 11.5943C65.5289 11.9876 65.9058 12.2073 66.4238 12.2531C66.9417 12.299 67.5318 12.2728 68.1939 12.1745V14.1609ZM60.7889 5.39885V3.54023H68.1939V5.39885H60.7889Z" fill="var(--fill-0, white)"/>
<path id="Vector_7" d="M73.5882 14.456C72.5132 14.456 71.569 14.2232 70.7561 13.7578C69.9432 13.2923 69.3072 12.6465 68.8483 11.8204C68.396 10.9944 68.1698 10.0438 68.1698 8.96859C68.1698 7.80818 68.3927 6.80183 68.8385 5.94956C69.2844 5.09073 69.9039 4.42529 70.697 3.95325C71.4903 3.48124 72.4083 3.24522 73.4506 3.24522C74.5519 3.24522 75.4863 3.50417 76.2533 4.0221C77.027 4.53347 77.6005 5.25791 77.9743 6.19541C78.3479 7.13292 78.4889 8.2376 78.3971 9.50947H76.0469V8.64407C76.0403 7.49023 75.8369 6.64778 75.4371 6.11673C75.0372 5.5857 74.4079 5.32018 73.549 5.32018C72.5787 5.32018 71.8575 5.62176 71.3855 6.22491C70.9134 6.82151 70.6774 7.69674 70.6774 8.85058C70.6774 9.92577 70.9134 10.7584 71.3855 11.3484C71.8575 11.9385 72.5459 12.2335 73.4506 12.2335C74.0341 12.2335 74.5356 12.1056 74.9553 11.85C75.3814 11.5877 75.7092 11.2107 75.9386 10.719L78.2792 11.4271C77.8726 12.3843 77.2433 13.1284 76.3909 13.6594C75.5452 14.1904 74.6111 14.456 73.5882 14.456ZM69.9301 9.50947V7.71967H77.2367V9.50947H69.9301Z" fill="var(--fill-0, white)"/>
<path id="Vector_8" d="M79.4112 14.1609V3.54023H81.5059V6.12658L81.2502 5.79221C81.3813 5.43819 81.5551 5.11694 81.7714 4.82848C81.9944 4.53347 82.2599 4.2909 82.5679 4.10077C82.8302 3.92376 83.1187 3.78608 83.4334 3.68775C83.7546 3.58285 84.0824 3.52057 84.4167 3.5009C84.7511 3.47467 85.0756 3.48779 85.3904 3.54023V5.75288C85.0756 5.6611 84.7118 5.63159 84.2988 5.66437C83.8923 5.69716 83.5251 5.81189 83.1973 6.00857C82.8696 6.18558 82.6007 6.41176 82.3909 6.6871C82.1878 6.96246 82.0369 7.27715 81.9386 7.63117C81.8402 7.97865 81.791 8.35561 81.791 8.76208V14.1609H79.4112Z" fill="var(--fill-0, white)"/>
<path id="Vector_9" d="M90.1528 14.456C89.1761 14.456 88.3238 14.2101 87.596 13.7184C86.8683 13.2267 86.3045 12.558 85.9045 11.7123C85.5047 10.8666 85.3048 9.91266 85.3048 8.85058C85.3048 7.77541 85.5047 6.81823 85.9045 5.97906C86.3111 5.13334 86.8846 4.4679 87.6256 3.98276C88.3664 3.49107 89.2382 3.24522 90.2413 3.24522C91.251 3.24522 92.0967 3.49107 92.7785 3.98276C93.4669 4.4679 93.9881 5.13334 94.3422 5.97906C94.6962 6.82479 94.8732 7.78196 94.8732 8.85058C94.8732 9.90611 94.6962 10.86 94.3422 11.7123C93.9881 12.558 93.4603 13.2267 92.7589 13.7184C92.0573 14.2101 91.1887 14.456 90.1528 14.456ZM90.5168 12.3318C91.1527 12.3318 91.6639 12.1876 92.0509 11.8991C92.4442 11.6041 92.7293 11.1944 92.9064 10.6699C93.0899 10.1454 93.1817 9.53897 93.1817 8.85058C93.1817 8.15565 93.0899 7.54922 92.9064 7.0313C92.7293 6.50682 92.4507 6.10035 92.0705 5.81189C91.6903 5.51686 91.1986 5.36936 90.5953 5.36936C89.9594 5.36936 89.435 5.52671 89.0219 5.84138C88.6089 6.14952 88.3041 6.56911 88.1075 7.10014C87.9107 7.62462 87.8124 8.20809 87.8124 8.85058C87.8124 9.49964 87.9075 10.0897 88.0975 10.6207C88.2943 11.1452 88.5925 11.5615 88.9925 11.8696C89.3924 12.1777 89.9005 12.3318 90.5168 12.3318ZM93.1817 14.1609V6.70678H92.8868V0H95.2763V14.1609H93.1817Z" fill="var(--fill-0, white)"/>
<path id="Vector_10" d="M121.618 14.1609V7.70984C121.618 6.98213 121.438 6.41504 121.077 6.00857C120.717 5.59553 120.228 5.38902 119.612 5.38902C119.232 5.38902 118.891 5.47752 118.589 5.65454C118.288 5.825 118.048 6.08067 117.871 6.42159C117.694 6.75594 117.606 7.15586 117.606 7.62134L116.554 7.00179C116.547 6.26753 116.711 5.62176 117.045 5.0645C117.386 4.50069 117.845 4.06143 118.422 3.74674C118.999 3.43205 119.641 3.27472 120.35 3.27472C121.523 3.27472 122.421 3.62873 123.044 4.33679C123.673 5.03827 123.988 5.96267 123.988 7.10997V14.1609H121.618ZM108.844 14.1609V3.54023H110.938V6.83462H111.233V14.1609H108.844ZM115.246 14.1609V7.73935C115.246 6.99852 115.065 6.42159 114.705 6.00857C114.344 5.59553 113.853 5.38902 113.23 5.38902C112.627 5.38902 112.141 5.59553 111.774 6.00857C111.414 6.42159 111.233 6.95918 111.233 7.62134L110.171 6.91329C110.171 6.22491 110.342 5.60538 110.683 5.05467C111.024 4.50396 111.483 4.07126 112.059 3.75657C112.643 3.43535 113.295 3.27472 114.016 3.27472C114.81 3.27472 115.472 3.44518 116.003 3.78608C116.54 4.12045 116.94 4.57936 117.203 5.16285C117.471 5.73977 117.606 6.39209 117.606 7.1198V14.1609H115.246Z" fill="var(--fill-0, white)"/>
<path id="Vector_11" d="M100.791 14.456C100.024 14.456 99.3746 14.3117 98.8436 14.0233C98.3126 13.7282 97.9094 13.3382 97.6339 12.853C97.3652 12.3679 97.2308 11.8336 97.2308 11.2501C97.2308 10.7387 97.3161 10.2798 97.4865 9.87332C97.6569 9.4603 97.9192 9.10627 98.2732 8.81124C98.6272 8.50968 99.0861 8.26383 99.6499 8.0737C100.076 7.93603 100.574 7.81145 101.145 7.70001C101.722 7.58856 102.344 7.48693 103.013 7.39515C103.688 7.29682 104.393 7.19192 105.128 7.08046L104.282 7.56233C104.288 6.82806 104.125 6.28719 103.79 5.93973C103.456 5.59226 102.892 5.41853 102.099 5.41853C101.62 5.41853 101.158 5.52998 100.712 5.75288C100.266 5.97579 99.9548 6.3593 99.7778 6.90346L97.6143 6.22491C97.8766 5.32675 98.3749 4.60559 99.1091 4.06143C99.8499 3.5173 100.846 3.24522 102.099 3.24522C103.043 3.24522 103.872 3.39929 104.587 3.70741C105.308 4.01554 105.842 4.52036 106.19 5.22185C106.38 5.59553 106.494 5.97906 106.534 6.37243C106.573 6.75922 106.593 7.18209 106.593 7.641V14.1609H104.518V11.8598L104.862 12.2335C104.383 13.0005 103.823 13.5643 103.18 13.9249C102.544 14.2789 101.748 14.456 100.791 14.456ZM101.263 12.5678C101.8 12.5678 102.259 12.4728 102.64 12.2826C103.02 12.0925 103.321 11.8598 103.544 11.5844C103.774 11.3091 103.928 11.0501 104.006 10.8075C104.131 10.506 104.2 10.1618 104.213 9.77497C104.233 9.38163 104.242 9.06366 104.242 8.82109L104.97 9.03743C104.256 9.14889 103.643 9.24722 103.131 9.33245C102.62 9.41767 102.181 9.49964 101.813 9.57829C101.446 9.65041 101.122 9.73236 100.84 9.82416C100.564 9.92249 100.332 10.0372 100.142 10.1683C99.9516 10.2995 99.8041 10.4502 99.6992 10.6207C99.6008 10.7912 99.5516 10.9911 99.5516 11.2206C99.5516 11.4828 99.6171 11.7156 99.7484 11.9188C99.8794 12.1155 100.07 12.2728 100.319 12.3908C100.574 12.5088 100.889 12.5678 101.263 12.5678Z" fill="var(--fill-0, white)"/>
</g>
<defs>
<clipPath id="clip0_3301_324">
<rect width="124" height="14.456" fill="white"/>
</clipPath>
</defs>
</svg>
