<svg preserveAspectRatio="none" width="100%" height="100%" overflow="visible" style="display: block;" viewBox="0 0 24 24" fill="none" xmlns="http://www.w3.org/2000/svg">
<g id="Database 1">
<path id="Vector" opacity="0.2" d="M20.25 7.5C20.25 9.985 16.556 12 12 12C7.444 12 3.75 9.985 3.75 7.5C3.75 5.015 7.444 3 12 3C16.556 3 20.25 5.015 20.25 7.5Z" fill="var(--fill-0, #ADFF85)"/>
<path id="Vector_2" d="M12 2.25C6.953 2.25 3 4.556 3 7.5V16.5C3 19.444 6.953 21.75 12 21.75C17.047 21.75 21 19.444 21 16.5V7.5C21 4.556 17.047 2.25 12 2.25ZM19.5 12C19.5 12.902 18.761 13.822 17.474 14.524C16.024 15.314 14.08 15.75 12 15.75C9.92 15.75 7.975 15.314 6.526 14.524C5.239 13.822 4.5 12.902 4.5 12V10.44C6.1 11.846 8.834 12.75 12 12.75C15.166 12.75 17.9 11.842 19.5 10.44V12ZM6.526 4.976C7.976 4.186 9.92 3.75 12 3.75C14.08 3.75 16.025 4.186 17.474 4.976C18.761 5.678 19.5 6.598 19.5 7.5C19.5 8.402 18.761 9.322 17.474 10.024C16.024 10.814 14.08 11.25 12 11.25C9.92 11.25 7.975 10.814 6.526 10.024C5.239 9.322 4.5 8.402 4.5 7.5C4.5 6.598 5.239 5.678 6.526 4.976ZM17.474 19.024C16.024 19.814 14.08 20.25 12 20.25C9.92 20.25 7.975 19.814 6.526 19.024C5.239 18.322 4.5 17.402 4.5 16.5V14.94C6.1 16.346 8.834 17.25 12 17.25C15.166 17.25 17.9 16.343 19.5 14.94V16.5C19.5 17.402 18.761 18.322 17.474 19.024Z" fill="var(--fill-0, #ADFF85)"/>
</g>
</svg>
