<svg preserveAspectRatio="none" width="100%" height="100%" overflow="visible" style="display: block;" viewBox="0 0 36 30" fill="none" xmlns="http://www.w3.org/2000/svg">
<g id="arc">
<g id="Group">
<path id="Vector" fill-rule="evenodd" clip-rule="evenodd" d="M11.6658 24.4022L15.0594 17.2966C12.4675 16.7488 9.85947 15.1532 8.38445 13.2119L4.83586 20.6366C6.80789 22.3014 9.1754 23.6097 11.6658 24.4022Z" fill="var(--fill-0, #1A007F)"/>
<path id="Vector_2" fill-rule="evenodd" clip-rule="evenodd" d="M25.8281 12.9989C24.1233 15.0785 21.7558 16.6209 19.2226 17.2219L22.6055 24.3062C25.0746 23.4765 27.3833 22.1362 29.3767 20.4183L25.8281 12.9989Z" fill="var(--fill-0, #4E000A)"/>
<path id="Vector_3" fill-rule="evenodd" clip-rule="evenodd" d="M4.83587 20.6367L3.06158 24.3491C2.1584 26.2372 2.83712 28.5614 4.69693 29.5453C6.66896 30.5878 9.09526 29.774 10.0465 27.7902L11.6659 24.4023C9.16527 23.6002 6.84532 22.3211 4.83587 20.6367Z" fill="var(--fill-0, #1A007F)"/>
<path id="Vector_4" fill-rule="evenodd" clip-rule="evenodd" d="M32.8719 4.89201C32.6202 4.84202 32.3636 4.81649 32.1071 4.81649C30.2564 4.81649 28.6488 6.12858 28.2865 7.93424C27.9124 9.79574 27.0359 11.5296 25.8281 13.0028L29.3714 20.4276C32.6421 17.6034 35.0577 13.7581 35.9235 9.45536C36.3457 7.3492 34.9775 5.30686 32.8719 4.89201Z" fill="var(--fill-0, #FF9396)"/>
<path id="Vector_5" fill-rule="evenodd" clip-rule="evenodd" d="M19.2226 17.2212C18.4637 17.402 17.6888 17.4977 16.9139 17.4977C16.31 17.4977 15.6847 17.4286 15.0594 17.2956C12.4675 16.7478 9.85946 15.1522 8.38445 13.2109C8.01569 12.727 7.71641 12.2217 7.50798 11.7058C6.701 9.72196 4.42968 8.76462 2.43627 9.56241C0.442861 10.3655 -0.519107 12.6259 0.282533 14.6097C1.1964 16.8648 2.81037 18.9337 4.83585 20.6357C6.84369 22.3201 9.1615 23.5987 11.6605 24.4012C13.376 24.9491 15.1556 25.2522 16.9086 25.2522C18.8539 25.2522 20.7725 24.9171 22.6002 24.3055L19.2226 17.2212Z" fill="var(--fill-0, #002DC8)"/>
<path id="Vector_6" fill-rule="evenodd" clip-rule="evenodd" d="M31.2419 24.3325L29.3714 20.418L25.8282 12.9986L25.8228 13.0039C25.8228 13.0039 25.8228 12.9986 25.8282 12.9986L20.6763 2.21253C20.0318 0.864271 18.6599 0.00106372 17.1598 0C15.658 0 14.2899 0.861612 13.6432 2.21253L8.38981 13.2114C9.86482 15.1526 12.4728 16.7482 15.0648 17.296L16.7643 13.7432C16.9246 13.4081 17.4056 13.4081 17.5659 13.7432L19.228 17.2216L22.6109 24.3059L24.273 27.7843C24.917 29.1352 26.292 29.9994 27.7948 29.9968C28.1422 29.9968 28.4896 29.9489 28.8316 29.8532C31.1778 29.2096 32.2894 26.5238 31.2419 24.3325Z" fill="var(--fill-0, #FF536A)"/>
</g>
<path id="Vector_7" fill-rule="evenodd" clip-rule="evenodd" d="M11.6658 24.4022L15.0595 17.2966C12.4675 16.7488 9.85949 15.1532 8.38447 13.2119L4.83588 20.6366C6.80791 22.3014 9.17542 23.6097 11.6658 24.4022Z" fill="var(--fill-0, #1A007F)"/>
<path id="Vector_8" fill-rule="evenodd" clip-rule="evenodd" d="M25.8281 12.9989C24.1233 15.0785 21.7558 16.6209 19.2226 17.2219L22.6055 24.3062C25.0746 23.4765 27.3833 22.1362 29.3767 20.4183L25.8281 12.9989Z" fill="var(--fill-0, #4E000A)"/>
<path id="Vector_9" fill-rule="evenodd" clip-rule="evenodd" d="M4.83587 20.6367L3.06157 24.3491C2.15839 26.2372 2.83711 28.5614 4.69692 29.5453C6.66895 30.5878 9.09525 29.774 10.0465 27.7902L11.6658 24.4023C9.16526 23.6002 6.84531 22.3211 4.83587 20.6367Z" fill="var(--fill-0, #1A007F)"/>
<path id="Vector_10" fill-rule="evenodd" clip-rule="evenodd" d="M32.8719 4.89201C32.6202 4.84202 32.3637 4.81649 32.1071 4.81649C30.2564 4.81649 28.6489 6.12858 28.2865 7.93424C27.9124 9.79574 27.036 11.5296 25.8282 13.0028L29.3714 20.4276C32.6421 17.6034 35.0577 13.7581 35.9235 9.45535C36.3457 7.34919 34.9775 5.30686 32.8719 4.89201Z" fill="var(--fill-0, #FF9396)"/>
<path id="Vector_11" fill-rule="evenodd" clip-rule="evenodd" d="M19.2226 17.2212C18.4638 17.402 17.6888 17.4977 16.9139 17.4977C16.31 17.4977 15.6847 17.4286 15.0595 17.2956C12.4675 16.7478 9.85948 15.1522 8.38446 13.2109C8.01571 12.727 7.71643 12.2217 7.50801 11.7058C6.70102 9.72196 4.42971 8.76462 2.43629 9.56241C0.442882 10.3655 -0.519086 12.6259 0.282554 14.6097C1.19642 16.8648 2.81039 18.9337 4.83587 20.6357C6.84371 22.3201 9.16152 23.5987 11.6605 24.4012C13.376 24.9491 15.1557 25.2522 16.9086 25.2522C18.8539 25.2522 20.7725 24.9171 22.6002 24.3055L19.2226 17.2212Z" fill="var(--fill-0, #002DC8)"/>
<path id="Vector_12" fill-rule="evenodd" clip-rule="evenodd" d="M31.2419 24.3325L29.3714 20.418L25.8282 12.9986L25.8228 13.0039C25.8228 13.0039 25.8228 12.9986 25.8282 12.9986L20.6763 2.21253C20.0318 0.864269 18.6599 0.00106372 17.1598 0C15.658 0 14.2899 0.86161 13.6432 2.21253L8.38982 13.2113C9.86484 15.1526 12.4728 16.7482 15.0648 17.296L16.7643 13.7432C16.9246 13.4081 17.4056 13.4081 17.5659 13.7432L19.228 17.2216L22.6109 24.3059L24.273 27.7843C24.917 29.1352 26.2921 29.9994 27.7949 29.9968C28.1422 29.9968 28.4896 29.9489 28.8317 29.8532C31.1778 29.2096 32.2894 26.5238 31.2419 24.3325Z" fill="var(--fill-0, #FF536A)"/>
</g>
</svg>
