<svg preserveAspectRatio="none" width="100%" height="100%" overflow="visible" style="display: block;" viewBox="0 0 116 116" fill="none" xmlns="http://www.w3.org/2000/svg">
<g id="Logos / Discord">
<rect x="0.5" y="0.5" width="115" height="115" rx="23.5" fill="var(--fill-0, #141D1F)"/>
<rect x="0.5" y="0.5" width="115" height="115" rx="23.5" stroke="var(--stroke-0, #141D1F)"/>
<path id="Vector" d="M68.5375 37H47.5125C44.7244 37 42.0505 38.1076 40.079 40.079C38.1076 42.0505 37 44.7244 37 47.5125V68.5375C37 71.3256 38.1076 73.9995 40.079 75.971C42.0505 77.9424 44.7244 79.05 47.5125 79.05H68.5375C71.3256 79.05 73.9995 77.9424 75.971 75.971C77.9424 73.9995 79.05 71.3256 79.05 68.5375V47.5125C79.05 44.7244 77.9424 42.0505 75.971 40.079C73.9995 38.1076 71.3256 37 68.5375 37ZM52.8328 61.1147C52.9858 61.2597 53.1082 61.4338 53.1927 61.6269C53.2773 61.82 53.3223 62.028 53.3251 62.2388C53.328 62.4495 53.2885 62.6587 53.2092 62.8539C53.1298 63.0492 53.0122 63.2266 52.8631 63.3756C52.7141 63.5247 52.5367 63.6423 52.3414 63.7217C52.1462 63.801 51.937 63.8405 51.7263 63.8376C51.5155 63.8348 51.3075 63.7898 51.1144 63.7052C50.9213 63.6207 50.7472 63.4983 50.6022 63.3453L46.3972 59.1403C46.2505 58.994 46.1342 58.8201 46.0548 58.6287C45.9755 58.4373 45.9346 58.2322 45.9346 58.025C45.9346 57.8178 45.9755 57.6127 46.0548 57.4213C46.1342 57.2299 46.2505 57.056 46.3972 56.9097L50.6022 52.7047C50.9006 52.4218 51.2976 52.2667 51.7087 52.2722C52.1199 52.2777 52.5126 52.4434 52.8033 52.7342C53.0941 53.0249 53.2598 53.4176 53.2653 53.8288C53.2708 54.2399 53.1157 54.6369 52.8328 54.9353L49.7432 58.025L52.8328 61.1147ZM61.6433 51.0988L57.4383 65.8163C57.3236 66.2183 57.0539 66.5583 56.6885 66.7614C56.3231 66.9646 55.892 67.0143 55.49 66.8996C55.088 66.7848 54.748 66.5151 54.5448 66.1497C54.3417 65.7844 54.292 65.3533 54.4067 64.9512L58.6117 50.2337C58.661 50.0264 58.7517 49.8311 58.8785 49.6598C59.0053 49.4885 59.1655 49.3446 59.3495 49.2369C59.5334 49.1292 59.7372 49.0599 59.9487 49.0331C60.1601 49.0063 60.3748 49.0227 60.5798 49.0812C60.7847 49.1396 60.9757 49.239 61.1412 49.3734C61.3067 49.5077 61.4433 49.6742 61.5427 49.8627C61.6421 50.0513 61.7022 50.258 61.7195 50.4704C61.7368 50.6829 61.7109 50.8966 61.6433 51.0988ZM69.6528 59.1403L65.4478 63.3453C65.3014 63.4918 65.1275 63.608 64.9361 63.6872C64.7447 63.7665 64.5396 63.8073 64.3325 63.8073C64.1254 63.8073 63.9203 63.7665 63.7289 63.6872C63.5375 63.608 63.3636 63.4918 63.2172 63.3453C63.0707 63.1989 62.9545 63.025 62.8753 62.8336C62.796 62.6422 62.7552 62.4371 62.7552 62.23C62.7552 62.0229 62.796 61.8178 62.8753 61.6264C62.9545 61.435 63.0707 61.2611 63.2172 61.1147L66.3068 58.025L63.2172 54.9353C63.0707 54.7889 62.9545 54.615 62.8753 54.4236C62.796 54.2322 62.7552 54.0271 62.7552 53.82C62.7552 53.6129 62.796 53.4078 62.8753 53.2164C62.9545 53.025 63.0707 52.8511 63.2172 52.7047C63.3636 52.5582 63.5375 52.442 63.7289 52.3628C63.9203 52.2835 64.1254 52.2427 64.3325 52.2427C64.5396 52.2427 64.7447 52.2835 64.9361 52.3628C65.1275 52.442 65.3014 52.5582 65.4478 52.7047L69.6528 56.9097C69.7995 57.056 69.9158 57.2299 69.9952 57.4213C70.0745 57.6127 70.1154 57.8178 70.1154 58.025C70.1154 58.2322 70.0745 58.4373 69.9952 58.6287C69.9158 58.8201 69.7995 58.994 69.6528 59.1403Z" fill="var(--fill-0, #ADFF85)"/>
</g>
</svg>
