<svg preserveAspectRatio="none" width="100%" height="100%" overflow="visible" style="display: block;" viewBox="0 0 16 16" fill="none" xmlns="http://www.w3.org/2000/svg">
<g id="Check">
<path id="Vector" d="M14.5306 5.03032L6.53063 13.0303C6.46095 13.1002 6.37816 13.1557 6.28699 13.1936C6.19583 13.2314 6.09809 13.2509 5.99938 13.2509C5.90067 13.2509 5.80293 13.2314 5.71176 13.1936C5.6206 13.1557 5.53781 13.1002 5.46813 13.0303L1.96813 9.53032C1.89836 9.46056 1.84302 9.37774 1.80527 9.28658C1.76751 9.19543 1.74808 9.09774 1.74808 8.99907C1.74808 8.90041 1.76751 8.80272 1.80527 8.71156C1.84302 8.62041 1.89836 8.53759 1.96813 8.46782C2.03789 8.39806 2.12072 8.34272 2.21187 8.30496C2.30302 8.26721 2.40072 8.24777 2.49938 8.24777C2.59804 8.24777 2.69574 8.26721 2.78689 8.30496C2.87804 8.34272 2.96086 8.39806 3.03063 8.46782L6 11.4372L13.4694 3.96907C13.6103 3.82818 13.8014 3.74902 14.0006 3.74902C14.1999 3.74902 14.391 3.82818 14.5319 3.96907C14.6728 4.10997 14.7519 4.30107 14.7519 4.50032C14.7519 4.69958 14.6728 4.89068 14.5319 5.03157L14.5306 5.03032Z" fill="var(--fill-0, white)"/>
</g>
</svg>
