<svg preserveAspectRatio="none" width="100%" height="100%" overflow="visible" style="display: block;" viewBox="0 0 16 16" fill="none" xmlns="http://www.w3.org/2000/svg">
<g id="CalendarBlank 1">
<path id="Vector" d="M13 1.75H11.75V1.5C11.75 1.086 11.414 0.75 11 0.75C10.586 0.75 10.25 1.086 10.25 1.5V1.75H5.75V1.5C5.75 1.086 5.414 0.75 5 0.75C4.586 0.75 4.25 1.086 4.25 1.5V1.75H3C2.31 1.75 1.75 2.31 1.75 3V13C1.75 13.69 2.31 14.25 3 14.25H13C13.69 14.25 14.25 13.69 14.25 13V3C14.25 2.31 13.69 1.75 13 1.75ZM4.25 3.25C4.25 3.664 4.586 4 5 4C5.414 4 5.75 3.664 5.75 3.25H10.25C10.25 3.664 10.586 4 11 4C11.414 4 11.75 3.664 11.75 3.25H12.75V4.75H3.25V3.25H4.25ZM3.25 12.75V6.25H12.75V12.75H3.25Z" fill="var(--fill-0, #B5BDC5)"/>
</g>
</svg>
