<svg preserveAspectRatio="none" width="100%" height="100%" overflow="visible" style="display: block;" viewBox="0 0 24 24" fill="none" xmlns="http://www.w3.org/2000/svg">
<g id="Sparkle 1">
<path id="Vector" opacity="0.2" d="M18.265 14.197L13.421 15.977C13.3201 16.0139 13.2284 16.0724 13.1524 16.1484C13.0764 16.2244 13.0179 16.3161 12.981 16.417L11.201 21.26C11.1488 21.4029 11.054 21.5263 10.9293 21.6136C10.8046 21.7008 10.6561 21.7475 10.504 21.7475C10.3519 21.7475 10.2034 21.7008 10.0787 21.6136C9.95403 21.5263 9.85918 21.4029 9.807 21.26L8.026 16.417C7.98912 16.316 7.93064 16.2244 7.85464 16.1484C7.77864 16.0724 7.68696 16.0139 7.586 15.977L2.743 14.197C2.60008 14.1448 2.47665 14.05 2.38945 13.9253C2.30224 13.8006 2.25547 13.6521 2.25547 13.5C2.25547 13.3479 2.30224 13.1994 2.38945 13.0747C2.47665 12.95 2.60008 12.8552 2.743 12.803L7.586 11.023C7.68692 10.9861 7.77858 10.9276 7.85457 10.8516C7.93056 10.7756 7.98906 10.6839 8.026 10.583L9.807 5.739C9.8598 5.59685 9.95484 5.47426 10.0793 5.38769C10.2038 5.30112 10.3519 5.25472 10.5035 5.25472C10.6551 5.25472 10.8032 5.30112 10.9277 5.38769C11.0522 5.47426 11.1472 5.59685 11.2 5.739L12.982 10.582C13.019 10.6829 13.0775 10.7745 13.1535 10.8505C13.2295 10.9265 13.3211 10.985 13.422 11.022L18.265 12.803C18.4076 12.8554 18.5307 12.9502 18.6176 13.0748C18.7045 13.1994 18.7512 13.3476 18.7512 13.4995C18.7512 13.6514 18.7045 13.7996 18.6176 13.9242C18.5307 14.0488 18.4076 14.1446 18.265 14.197Z" fill="var(--fill-0, #ADFF85)"/>
<path id="Vector_2" d="M18.523 12.1L13.685 10.318L11.903 5.476C11.7975 5.18963 11.6067 4.94251 11.3564 4.76796C11.106 4.5934 10.8082 4.49981 10.503 4.49981C10.1978 4.49981 9.89997 4.5934 9.64963 4.76796C9.3993 4.94251 9.20851 5.18963 9.103 5.476L7.319 10.313L2.477 12.093C2.18996 12.1981 1.94214 12.3889 1.76706 12.6394C1.59198 12.89 1.49809 13.1883 1.49809 13.494C1.49809 13.7997 1.59198 14.098 1.76706 14.3486C1.94214 14.5991 2.18996 14.7899 2.477 14.895L7.313 16.688L9.093 21.527C9.19856 21.8136 9.38947 22.0609 9.63999 22.2356C9.89051 22.4103 10.1886 22.504 10.494 22.504C10.7994 22.504 11.0975 22.4103 11.348 22.2356C11.5985 22.0609 11.7894 21.8136 11.895 21.527L13.676 16.688L18.518 14.908C18.805 14.8029 19.0529 14.6121 19.2279 14.3616C19.403 14.111 19.4969 13.8127 19.4969 13.507C19.4969 13.2013 19.403 12.903 19.2279 12.6524C19.0529 12.4019 18.805 12.2111 18.518 12.106L18.523 12.099V12.1ZM13.162 15.281C12.9593 15.3554 12.7753 15.473 12.6227 15.6257C12.47 15.7783 12.3524 15.9623 12.278 16.165L10.496 20.99L8.719 16.162C8.64454 15.9605 8.52732 15.7775 8.37542 15.6256C8.22351 15.4737 8.04051 15.3565 7.839 15.282L3.013 13.5L7.838 11.719C8.03951 11.6445 8.22251 11.5273 8.37442 11.3754C8.52632 11.2235 8.64354 11.0405 8.718 10.839L10.5 6.013L12.281 10.837C12.3552 11.0399 12.4728 11.2241 12.6254 11.377C12.7781 11.5298 12.9622 11.6476 13.165 11.722L17.99 13.502L13.162 15.28V15.281ZM13.5 3.75C13.5 3.55109 13.579 3.36032 13.7197 3.21967C13.8603 3.07902 14.0511 3 14.25 3H15.75V1.5C15.75 1.30109 15.829 1.11032 15.9697 0.96967C16.1103 0.829018 16.3011 0.75 16.5 0.75C16.6989 0.75 16.8897 0.829018 17.0303 0.96967C17.171 1.11032 17.25 1.30109 17.25 1.5V3H18.75C18.9489 3 19.1397 3.07902 19.2803 3.21967C19.421 3.36032 19.5 3.55109 19.5 3.75C19.5 3.94891 19.421 4.13968 19.2803 4.28033C19.1397 4.42098 18.9489 4.5 18.75 4.5H17.25V6C17.25 6.19891 17.171 6.38968 17.0303 6.53033C16.8897 6.67098 16.6989 6.75 16.5 6.75C16.3011 6.75 16.1103 6.67098 15.9697 6.53033C15.829 6.38968 15.75 6.19891 15.75 6V4.5H14.25C14.0511 4.5 13.8603 4.42098 13.7197 4.28033C13.579 4.13968 13.5 3.94891 13.5 3.75ZM23.25 8.25C23.25 8.44891 23.171 8.63968 23.0303 8.78033C22.8897 8.92098 22.6989 9 22.5 9H21.75V9.75C21.75 9.94891 21.671 10.1397 21.5303 10.2803C21.3897 10.421 21.1989 10.5 21 10.5C20.8011 10.5 20.6103 10.421 20.4697 10.2803C20.329 10.1397 20.25 9.94891 20.25 9.75V9H19.5C19.3011 9 19.1103 8.92098 18.9697 8.78033C18.829 8.63968 18.75 8.44891 18.75 8.25C18.75 8.05109 18.829 7.86032 18.9697 7.71967C19.1103 7.57902 19.3011 7.5 19.5 7.5H20.25V6.75C20.25 6.55109 20.329 6.36032 20.4697 6.21967C20.6103 6.07902 20.8011 6 21 6C21.1989 6 21.3897 6.07902 21.5303 6.21967C21.671 6.36032 21.75 6.55109 21.75 6.75V7.5H22.5C22.6989 7.5 22.8897 7.57902 23.0303 7.71967C23.171 7.86032 23.25 8.05109 23.25 8.25Z" fill="var(--fill-0, #ADFF85)"/>
</g>
</svg>
