<svg preserveAspectRatio="none" width="100%" height="100%" overflow="visible" style="display: block;" viewBox="0 0 96 17" fill="none" xmlns="http://www.w3.org/2000/svg">
<g id="monaco-white 1" clip-path="url(#clip0_3301_297)">
<path id="Vector" d="M26.479 13.7386V2.86915H29.0746V13.7386H26.479ZM29.0746 7.43188H28.2432C28.3108 6.33684 28.5136 5.43105 28.8515 4.71453C29.1895 3.99802 29.6356 3.46401 30.19 3.11251C30.7442 2.74749 31.3795 2.56498 32.0961 2.56498C32.7721 2.56498 33.3602 2.71369 33.8603 3.0111C34.374 3.29502 34.7729 3.72762 35.0569 4.30895C35.3408 4.89028 35.4826 5.62032 35.4826 6.49907V13.7386H32.887V7.02632C32.887 6.5261 32.8261 6.10701 32.7045 5.76903C32.5828 5.41753 32.3936 5.1539 32.1367 4.97815C31.8799 4.8024 31.5622 4.71453 31.1835 4.71453C30.8591 4.71453 30.5685 4.78888 30.3116 4.93759C30.0548 5.07279 29.8316 5.26882 29.6424 5.52568C29.4531 5.76903 29.3111 6.05969 29.2166 6.39767C29.1219 6.72213 29.0746 7.06686 29.0746 7.43188ZM35.4826 7.43188H34.2863C34.3539 6.33684 34.5635 5.43105 34.9149 4.71453C35.28 3.99802 35.7598 3.46401 36.3547 3.11251C36.9496 2.74749 37.6256 2.56498 38.3826 2.56498C39.072 2.56498 39.6804 2.71369 40.2077 3.0111C40.7485 3.29502 41.1607 3.72762 41.4447 4.30895C41.742 4.89028 41.8908 5.62032 41.8908 6.49907V13.7386H39.2951V7.02632C39.2951 6.5261 39.2343 6.10701 39.1127 5.76903C38.991 5.41753 38.8016 5.1539 38.5447 4.97815C38.3014 4.8024 37.9838 4.71453 37.5917 4.71453C37.2672 4.71453 36.9767 4.78888 36.7196 4.93759C36.4628 5.07279 36.2398 5.26882 36.0506 5.52568C35.8613 5.76903 35.7193 6.05969 35.6246 6.39767C35.5301 6.72213 35.4826 7.06686 35.4826 7.43188Z" fill="var(--fill-0, white)"/>
<path id="Vector_2" d="M47.9731 14.0428C46.8914 14.0428 45.9587 13.813 45.1746 13.3533C44.404 12.8936 43.8092 12.238 43.39 11.3863C42.971 10.521 42.7614 9.50034 42.7614 8.32415C42.7614 7.09391 42.971 6.05293 43.39 5.20122C43.8227 4.33599 44.431 3.68032 45.2151 3.23417C45.9992 2.78805 46.9185 2.56498 47.9731 2.56498C49.041 2.56498 49.9603 2.80157 50.7309 3.27474C51.515 3.73438 52.1166 4.39682 52.5358 5.26206C52.9548 6.11377 53.1644 7.13447 53.1644 8.32415C53.1644 9.54088 52.948 10.5751 52.5155 11.4268C52.0963 12.2785 51.4948 12.9274 50.7107 13.3736C49.9402 13.8197 49.0276 14.0428 47.9731 14.0428ZM47.9731 11.8932C48.7841 11.8932 49.4061 11.5891 49.8387 10.9807C50.2714 10.3588 50.4876 9.4733 50.4876 8.32415C50.4876 7.16151 50.2714 6.26924 49.8387 5.64735C49.4061 5.02547 48.7841 4.71453 47.9731 4.71453C47.1483 4.71453 46.5197 5.02547 46.0871 5.64735C45.6544 6.25572 45.4382 7.14799 45.4382 8.32415C45.4382 9.45977 45.6544 10.3385 46.0871 10.9604C46.5197 11.5823 47.1483 11.8932 47.9731 11.8932Z" fill="var(--fill-0, white)"/>
<path id="Vector_3" d="M54.0376 13.7386V2.86915H56.6332V13.7386H54.0376ZM56.6332 7.43188H55.8018C55.8694 6.33684 56.0788 5.43105 56.4304 4.71453C56.782 3.99802 57.2482 3.46401 57.8296 3.11251C58.4244 2.74749 59.1005 2.56498 59.8575 2.56498C60.5875 2.56498 61.2229 2.71369 61.7637 3.0111C62.3181 3.29502 62.7439 3.72762 63.0412 4.30895C63.3523 4.89028 63.5077 5.62032 63.5077 6.49907V13.7386H60.912V7.02632C60.912 6.5261 60.8376 6.10701 60.689 5.76903C60.5538 5.41753 60.3442 5.1539 60.0603 4.97815C59.7765 4.8024 59.4114 4.71453 58.9653 4.71453C58.6137 4.71453 58.2892 4.78888 57.9919 4.93759C57.7079 5.07279 57.4646 5.26882 57.2618 5.52568C57.059 5.76903 56.9036 6.05969 56.7954 6.39767C56.6873 6.72213 56.6332 7.06686 56.6332 7.43188Z" fill="var(--fill-0, white)"/>
<path id="Vector_4" d="M67.4004 6.43823H64.7844C64.9061 5.62708 65.1697 4.93759 65.5753 4.3698C65.9945 3.78846 66.5419 3.34232 67.218 3.03138C67.9074 2.72045 68.7118 2.56498 69.6311 2.56498C70.6316 2.56498 71.4698 2.74749 72.1457 3.11251C72.8352 3.47753 73.3489 3.98449 73.687 4.63341C74.0248 5.28233 74.1939 6.02589 74.1939 6.86409V11.0821C74.1939 11.7445 74.2208 12.2853 74.2751 12.7044C74.3427 13.11 74.4236 13.4547 74.5184 13.7386H71.8212C71.7131 13.4682 71.6455 13.1302 71.6184 12.7247C71.5915 12.3056 71.5779 11.8865 71.5779 11.4674V6.86409C71.5779 6.16107 71.4022 5.62708 71.0506 5.26206C70.7126 4.89704 70.1853 4.71453 69.4688 4.71453C68.847 4.71453 68.367 4.87676 68.0292 5.20122C67.6912 5.51216 67.4816 5.9245 67.4004 6.43823ZM71.9227 7.12771V8.72973C70.9222 8.72973 70.1044 8.78382 69.4688 8.89196C68.8335 8.98661 68.3401 9.12856 67.9885 9.31783C67.6371 9.5071 67.3869 9.72339 67.2383 9.96674C67.1031 10.2101 67.0355 10.4737 67.0355 10.7576C67.0355 11.1767 67.1908 11.5079 67.5019 11.7513C67.8128 11.9946 68.225 12.1163 68.7389 12.1163C69.266 12.1163 69.746 11.9879 70.1786 11.731C70.6113 11.4741 70.9493 11.1226 71.1926 10.6765C71.4495 10.2304 71.5779 9.73691 71.5779 9.19614H72.5716C72.5176 10.0614 72.3485 10.8049 72.0647 11.4268C71.7943 12.0352 71.4427 12.5354 71.0101 12.9274C70.591 13.306 70.1245 13.5831 69.6108 13.7589C69.0971 13.9482 68.5834 14.0428 68.0697 14.0428C67.3532 14.0428 66.7178 13.9279 66.1634 13.698C65.6226 13.4547 65.1968 13.1032 64.8859 12.6435C64.575 12.1704 64.4195 11.5891 64.4195 10.8996C64.4195 10.156 64.6223 9.52062 65.0279 8.99337C65.4469 8.4526 66.0757 8.04026 66.9138 7.75636C67.6708 7.48597 68.4414 7.31698 69.2255 7.24937C70.0232 7.16827 70.9222 7.12771 71.9227 7.12771Z" fill="var(--fill-0, white)"/>
<path id="Vector_5" d="M85.0644 6.72213H82.4688C82.3471 6.01913 82.0835 5.51216 81.6779 5.20122C81.2858 4.87676 80.8194 4.71453 80.2785 4.71453C79.4675 4.71453 78.8523 5.02547 78.4333 5.64735C78.0277 6.25572 77.8249 7.14799 77.8249 8.32415C77.8249 9.4733 78.0412 10.3588 78.4738 10.9807C78.9065 11.5891 79.5351 11.8932 80.3597 11.8932C80.9141 11.8932 81.3805 11.7445 81.759 11.4471C82.1375 11.1361 82.3944 10.6697 82.5296 10.0479H85.1456C84.9021 11.4133 84.3411 12.4205 83.4625 13.0694C82.5836 13.7183 81.5291 14.0428 80.2989 14.0428C79.231 14.0428 78.3116 13.813 77.5409 13.3533C76.7839 12.8801 76.1958 12.2177 75.7768 11.366C75.3576 10.5143 75.148 9.50034 75.148 8.32415C75.148 7.09391 75.3576 6.05293 75.7768 5.20122C76.1958 4.33599 76.7907 3.68032 77.5612 3.23417C78.3318 2.78805 79.2376 2.56498 80.2785 2.56498C81.1033 2.56498 81.8536 2.72045 82.5296 3.03138C83.219 3.34232 83.7869 3.80875 84.233 4.43062C84.6791 5.03899 84.9563 5.80283 85.0644 6.72213Z" fill="var(--fill-0, white)"/>
<path id="Vector_6" d="M90.6337 14.0428C89.5523 14.0428 88.6194 13.813 87.8352 13.3533C87.0647 12.8936 86.4698 12.238 86.0508 11.3863C85.6316 10.521 85.4222 9.50034 85.4222 8.32415C85.4222 7.09391 85.6316 6.05293 86.0508 5.20122C86.4834 4.33599 87.0918 3.68032 87.8759 3.23417C88.66 2.78805 89.5794 2.56498 90.6337 2.56498C91.7018 2.56498 92.6211 2.80157 93.3917 3.27474C94.1758 3.73438 94.7775 4.39682 95.1965 5.26206C95.6156 6.11377 95.8252 7.13447 95.8252 8.32415C95.8252 9.54088 95.6089 10.5751 95.1763 11.4268C94.7571 12.2785 94.1555 12.9274 93.3714 13.3736C92.6008 13.8197 91.6883 14.0428 90.6337 14.0428ZM90.6337 11.8932C91.445 11.8932 92.0668 11.5891 92.4995 10.9807C92.932 10.3588 93.1484 9.4733 93.1484 8.32415C93.1484 7.16151 92.932 6.26924 92.4995 5.64735C92.0668 5.02547 91.445 4.71453 90.6337 4.71453C89.8091 4.71453 89.1805 5.02547 88.7478 5.64735C88.3152 6.25572 88.0989 7.14799 88.0989 8.32415C88.0989 9.45977 88.3152 10.3385 88.7478 10.9604C89.1805 11.5823 89.8091 11.8932 90.6337 11.8932Z" fill="var(--fill-0, white)"/>
<path id="Vector_7" fill-rule="evenodd" clip-rule="evenodd" d="M2.56489 0C1.14834 0 0 1.14834 0 2.56489V13.9237C0 15.3402 1.14834 16.4886 2.56489 16.4886H18.3206C19.7372 16.4886 20.8855 15.3402 20.8855 13.9237V2.56489C20.8855 1.14834 19.7372 0 18.3206 0H2.56489ZM3.29771 1.8321C2.48825 1.8321 1.83206 2.48829 1.83206 3.29775C1.83206 4.10721 2.48825 4.7634 3.29771 4.7634C4.10717 4.7634 4.76336 4.10721 4.76336 3.29775C4.76336 2.48829 4.10717 1.8321 3.29771 1.8321ZM5.86265 3.29775C5.86265 2.48829 6.51886 1.8321 7.3283 1.8321C8.13776 1.8321 8.79395 2.48829 8.79395 3.29775C8.79395 4.10721 8.13776 4.7634 7.3283 4.7634C6.51886 4.7634 5.86265 4.10721 5.86265 3.29775ZM11.3588 1.8321C10.5493 1.8321 9.89313 2.48829 9.89313 3.29775C9.89313 4.10721 10.5493 4.7634 11.3588 4.7634C12.1682 4.7634 12.8244 4.10721 12.8244 3.29775C12.8244 2.48829 12.1682 1.8321 11.3588 1.8321Z" fill="var(--fill-0, white)"/>
</g>
<defs>
<clipPath id="clip0_3301_297">
<rect width="96" height="16.4886" fill="white"/>
</clipPath>
</defs>
</svg>
