<svg preserveAspectRatio="none" width="100%" height="100%" overflow="visible" style="display: block;" viewBox="0 0 18 18" fill="none" xmlns="http://www.w3.org/2000/svg">
<g id="github_icon">
<path id="Vector" d="M12.512 2.962C11.452 2.324 10.237 1.991 9 2C7.763 1.991 6.547 2.324 5.487 2.962C4.424 3.595 3.546 4.495 2.941 5.573C2.311 6.674 2 7.874 2 9.176C2 10.738 2.445 12.145 3.335 13.393C4.225 14.64 5.374 15.506 6.784 15.984C6.949 16.016 7.071 15.994 7.148 15.919C7.226 15.847 7.27 15.745 7.267 15.639L7.263 15.134C7.26 14.816 7.258 14.539 7.258 14.302L7.049 14.339C6.882 14.366 6.712 14.377 6.543 14.371C6.33 14.368 6.118 14.346 5.909 14.306C5.687 14.263 5.478 14.167 5.301 14.026C5.113 13.879 4.973 13.679 4.9 13.452L4.809 13.236C4.732 13.066 4.636 12.907 4.522 12.761C4.39 12.586 4.259 12.467 4.125 12.404L4.061 12.358C4.018 12.325 3.978 12.288 3.942 12.247C3.909 12.208 3.882 12.163 3.862 12.116C3.844 12.071 3.858 12.036 3.906 12.008C3.955 11.978 4.043 11.966 4.17 11.966L4.354 11.994C4.474 12.019 4.625 12.093 4.804 12.217C4.984 12.342 5.131 12.504 5.245 12.704C5.385 12.958 5.554 13.153 5.752 13.287C5.949 13.421 6.148 13.489 6.35 13.489C6.548 13.489 6.722 13.472 6.868 13.441C7.014 13.411 7.151 13.363 7.278 13.301C7.334 12.884 7.482 12.563 7.724 12.339C7.409 12.307 7.098 12.25 6.791 12.17C6.491 12.086 6.203 11.963 5.935 11.805C5.651 11.648 5.401 11.435 5.201 11.179C5.007 10.932 4.847 10.604 4.723 10.201C4.592 9.745 4.53 9.273 4.537 8.799C4.537 8.046 4.776 7.404 5.257 6.874C5.032 6.307 5.052 5.672 5.321 4.967C5.496 4.912 5.757 4.953 6.104 5.093C6.45 5.233 6.703 5.353 6.865 5.452C7.026 5.552 7.155 5.636 7.252 5.706C7.821 5.545 8.409 5.464 9 5.465C9.602 5.465 10.185 5.546 10.75 5.708L11.096 5.483C11.333 5.335 11.613 5.198 11.935 5.072C12.258 4.948 12.504 4.915 12.675 4.97C12.948 5.674 12.972 6.308 12.747 6.877C13.227 7.406 13.467 8.047 13.467 8.8C13.467 9.33 13.405 9.798 13.28 10.206C13.156 10.615 12.995 10.943 12.796 11.189C12.592 11.441 12.342 11.652 12.059 11.81C11.765 11.978 11.478 12.099 11.203 12.174C10.926 12.249 10.616 12.306 10.268 12.341C10.584 12.621 10.742 13.063 10.742 13.668V15.64C10.739 15.745 10.78 15.847 10.856 15.92C10.932 15.995 11.052 16.016 11.216 15.985C12.627 15.504 13.776 14.641 14.665 13.391C15.554 12.145 16 10.738 16 9.175C16.01 7.913 15.686 6.671 15.061 5.574C14.455 4.496 13.577 3.596 12.515 2.963H12.513L12.512 2.962Z" fill="var(--fill-0, #B5BDC5)"/>
</g>
</svg>
