<svg preserveAspectRatio="none" width="100%" height="100%" overflow="visible" style="display: block;" viewBox="0 0 67 24" fill="none" xmlns="http://www.w3.org/2000/svg">
<g id="framer 2">
<path id="Vector" d="M0 1H14.464V8.286H7.232L0 1ZM0 8.286H7.232L14.464 15.572H0V8.286ZM0 15.572H7.232V22.856L0 15.572ZM22.624 6.748H28.471V8.62H24.837V11.221H28.471V13.051H24.837V16.381H22.624V6.748ZM29.673 9.748H31.763V11.138C31.872 10.66 32.095 10.294 32.432 10.037C32.759 9.777 33.164 9.637 33.58 9.638C33.798 9.638 33.98 9.656 34.125 9.693V11.647C33.917 11.622 33.707 11.608 33.497 11.606C32.924 11.606 32.492 11.794 32.199 12.17C31.909 12.537 31.763 13.088 31.763 13.822V16.381H29.673V9.748ZM37.425 16.56C36.788 16.56 36.232 16.408 35.758 16.106C35.294 15.804 34.925 15.374 34.693 14.867C34.447 14.336 34.324 13.734 34.324 13.064C34.324 12.404 34.452 11.807 34.707 11.276C34.946 10.762 35.325 10.327 35.8 10.024C36.281 9.72 36.833 9.569 37.452 9.569C37.916 9.569 38.332 9.671 38.695 9.872C39.06 10.074 39.332 10.35 39.515 10.698V9.748H41.591V16.381H39.516V15.445C39.333 15.775 39.051 16.045 38.669 16.256C38.286 16.461 37.858 16.565 37.425 16.56ZM38.026 14.812C38.527 14.812 38.914 14.647 39.187 14.317C39.46 13.986 39.597 13.568 39.597 13.064C39.597 12.569 39.46 12.156 39.187 11.826C38.914 11.495 38.527 11.331 38.026 11.331C37.551 11.331 37.17 11.491 36.879 11.812C36.597 12.133 36.455 12.551 36.455 13.064C36.455 13.578 36.597 14 36.879 14.331C37.17 14.652 37.553 14.812 38.026 14.812ZM43.053 9.748H45.143V10.711C45.29 10.372 45.526 10.096 45.853 9.885C46.19 9.676 46.582 9.569 47.028 9.569C48.066 9.569 48.754 9.977 49.091 10.794C49.276 10.423 49.566 10.117 49.924 9.913C50.307 9.681 50.747 9.562 51.194 9.569C52.751 9.569 53.53 10.468 53.53 12.266V16.381H51.427V12.652C51.427 12.203 51.344 11.872 51.18 11.661C51.016 11.45 50.771 11.344 50.443 11.344C50.088 11.344 49.814 11.468 49.623 11.716C49.432 11.955 49.336 12.372 49.336 12.968V16.381H47.233V12.638C47.233 12.188 47.151 11.862 46.987 11.661C46.833 11.45 46.591 11.344 46.263 11.344C45.899 11.344 45.621 11.468 45.43 11.716C45.239 11.955 45.143 12.372 45.143 12.968V16.381H43.054L43.053 9.748ZM61.382 12.721C61.382 13.004 61.363 13.312 61.326 13.643H56.464C56.482 14.074 56.628 14.404 56.901 14.634C57.174 14.862 57.543 14.977 58.007 14.977C58.654 14.977 59.064 14.78 59.237 14.386H61.286C61.186 15.037 60.83 15.565 60.22 15.968C59.62 16.362 58.882 16.56 58.008 16.56C56.879 16.56 55.991 16.252 55.343 15.638C54.706 15.023 54.387 14.166 54.387 13.064C54.387 12.349 54.533 11.73 54.825 11.207C55.107 10.684 55.54 10.261 56.067 9.995C56.605 9.712 57.229 9.569 57.94 9.569C58.613 9.569 59.21 9.702 59.728 9.968C60.257 10.235 60.662 10.606 60.944 11.083C61.236 11.561 61.382 12.107 61.382 12.721ZM59.318 12.335C59.309 11.895 59.186 11.56 58.949 11.331C58.713 11.101 58.371 10.986 57.925 10.986C57.478 10.986 57.124 11.11 56.859 11.358C56.605 11.597 56.473 11.922 56.463 12.335H59.318ZM62.303 9.748H64.393V11.138C64.502 10.66 64.725 10.294 65.063 10.037C65.39 9.777 65.794 9.637 66.21 9.638C66.428 9.638 66.611 9.656 66.756 9.693V11.647C66.548 11.622 66.338 11.608 66.128 11.606C65.554 11.606 65.122 11.794 64.83 12.17C64.538 12.537 64.393 13.088 64.393 13.822V16.381H62.303V9.748Z" fill="var(--fill-0, #B5BDC5)"/>
</g>
</svg>
