<svg preserveAspectRatio="none" width="100%" height="100%" overflow="visible" style="display: block;" viewBox="0 0 108 21" fill="none" xmlns="http://www.w3.org/2000/svg">
<g id="delaware-white 1" clip-path="url(#clip0_3301_339)">
<path id="Vector" d="M101.59 19.0371C100.395 19.0371 99.3495 18.7767 98.4548 18.256C97.5677 17.7278 96.876 16.9951 96.3797 16.0579C95.8836 15.1131 95.6356 14.0122 95.6356 12.7551C95.6356 11.4384 95.8798 10.3003 96.3685 9.34072C96.8572 8.3737 97.5377 7.62984 98.4097 7.10913C99.2894 6.58099 100.319 6.3169 101.5 6.3169C102.725 6.3169 103.766 6.59586 104.624 7.15377C105.488 7.71165 106.135 8.5076 106.563 9.54158C106.999 10.5756 107.187 11.8067 107.127 13.2349H105.097V12.5208C105.075 11.0405 104.77 9.93582 104.184 9.20684C103.597 8.4704 102.725 8.1022 101.567 8.1022C100.327 8.1022 99.3833 8.49644 98.7366 9.28493C98.0902 10.0734 97.7669 11.2041 97.7669 12.677C97.7669 14.0978 98.0902 15.1987 98.7366 15.9798C99.3833 16.7608 100.304 17.1513 101.5 17.1513C102.304 17.1513 103.003 16.9691 103.597 16.6046C104.191 16.2401 104.657 15.7157 104.996 15.0313L106.924 15.6896C106.45 16.7534 105.736 17.5791 104.782 18.1667C103.834 18.7469 102.77 19.0371 101.59 19.0371ZM97.0902 13.2349V11.6393H106.09V13.2349H97.0902Z" fill="var(--fill-0, white)"/>
<path id="Vector_2" d="M89.4717 18.7023V6.65166H91.2647V9.56389L90.9716 9.18453C91.1144 8.8126 91.2985 8.4704 91.5242 8.15799C91.7572 7.84555 92.0167 7.58893 92.3024 7.38807C92.6181 7.13517 92.9752 6.94176 93.3736 6.80785C93.7722 6.67397 94.178 6.59586 94.5916 6.57355C95.005 6.54379 95.3922 6.56983 95.7532 6.65166V8.51504C95.3322 8.40345 94.8697 8.3737 94.366 8.42577C93.8623 8.47784 93.3963 8.6601 92.9676 8.97251C92.5768 9.24776 92.2723 9.58249 92.0543 9.97674C91.8437 10.371 91.6972 10.7987 91.6145 11.2599C91.5318 11.7137 91.4903 12.1786 91.4903 12.6547V18.7023H89.4717Z" fill="var(--fill-0, white)"/>
<path id="Vector_3" d="M81.6001 19.0371C80.6903 19.0371 79.9274 18.8734 79.3108 18.5461C78.7018 18.2114 78.2395 17.7725 77.9238 17.2295C77.6155 16.6864 77.4613 16.0913 77.4613 15.4442C77.4613 14.8119 77.5816 14.2651 77.8223 13.8039C78.0703 13.3353 78.4161 12.9485 78.8597 12.6435C79.3034 12.3311 79.8333 12.0856 80.4499 11.9071C81.0287 11.7509 81.6753 11.617 82.3894 11.5054C83.1114 11.3864 83.8405 11.2785 84.5772 11.1818C85.3142 11.0851 86.0021 10.9921 86.6411 10.9028L85.9194 11.3157C85.942 10.2445 85.7238 9.45231 85.2653 8.93904C84.8141 8.42577 84.0323 8.16915 82.9196 8.16915C82.1828 8.16915 81.5362 8.3365 80.9798 8.67126C80.4311 8.99855 80.0439 9.53414 79.8183 10.278L77.9124 9.70895C78.2057 8.65266 78.7732 7.82323 79.6153 7.2207C80.4573 6.61818 81.5662 6.3169 82.9422 6.3169C84.0473 6.3169 84.9947 6.51404 85.784 6.90828C86.581 7.29509 87.1524 7.88275 87.4982 8.67126C87.6711 9.04319 87.78 9.44859 87.8253 9.88747C87.8703 10.3189 87.893 10.7727 87.893 11.2488V18.7023H86.111V15.8124L86.5284 16.0802C86.0697 17.0547 85.4269 17.7911 84.5999 18.2895C83.7804 18.7879 82.7804 19.0371 81.6001 19.0371ZM81.9046 17.3745C82.6263 17.3745 83.2503 17.248 83.7766 16.9951C84.3104 16.7348 84.739 16.3963 85.0623 15.9798C85.3857 15.5557 85.596 15.0945 85.6937 14.5962C85.8067 14.2242 85.8667 13.8114 85.8741 13.3576C85.8893 12.8964 85.8967 12.5431 85.8967 12.2976L86.5961 12.5989C85.9418 12.6881 85.2992 12.7737 84.6675 12.8555C84.0361 12.9373 83.4383 13.0266 82.8745 13.1233C82.3106 13.2126 81.8031 13.3204 81.352 13.4469C81.0213 13.551 80.7092 13.6849 80.4161 13.8486C80.1304 14.0122 79.8971 14.2242 79.7168 14.4846C79.5438 14.7375 79.4573 15.0536 79.4573 15.433C79.4573 15.7603 79.5402 16.0727 79.7056 16.3703C79.8785 16.6678 80.1416 16.9096 80.495 17.0956C80.8557 17.2815 81.3258 17.3745 81.9046 17.3745Z" fill="var(--fill-0, white)"/>
<path id="Vector_4" d="M65.191 18.7023L61.4695 6.64048L63.4657 6.65164L66.1834 15.4665L68.9239 6.65164H70.6943L73.4234 15.4665L76.1525 6.65164H78.1373L74.4158 18.7023H72.747L69.8034 9.54158L66.8601 18.7023H65.191Z" fill="var(--fill-0, white)"/>
<path id="Vector_5" d="M55.1663 19.0371C54.2566 19.0371 53.4934 18.8734 52.877 18.5461C52.268 18.2114 51.8055 17.7725 51.4898 17.2295C51.1815 16.6864 51.0273 16.0913 51.0273 15.4442C51.0273 14.8119 51.1476 14.2651 51.3883 13.8039C51.6363 13.3353 51.9823 12.9485 52.4257 12.6435C52.8694 12.3311 53.3995 12.0856 54.0159 11.9071C54.5949 11.7509 55.2413 11.617 55.9557 11.5054C56.6774 11.3864 57.4067 11.2785 58.1434 11.1818C58.8802 11.0851 59.5681 10.9921 60.2071 10.9028L59.4854 11.3157C59.508 10.2445 59.29 9.45231 58.8313 8.93904C58.3803 8.42577 57.5983 8.16915 56.4856 8.16915C55.7488 8.16915 55.1022 8.3365 54.5458 8.67126C53.9971 8.99855 53.6099 9.53414 53.3843 10.278L51.4786 9.70895C51.7717 8.65266 52.3392 7.82323 53.1813 7.2207C54.0233 6.61818 55.1324 6.3169 56.5082 6.3169C57.6133 6.3169 58.5607 6.51404 59.35 6.90828C60.147 7.29509 60.7184 7.88275 61.0641 8.67126C61.2371 9.04319 61.3462 9.44859 61.3913 9.88747C61.4363 10.3189 61.4589 10.7727 61.4589 11.2488V18.7023H59.6772V15.8124L60.0944 16.0802C59.6357 17.0547 58.9929 17.7911 58.1658 18.2895C57.3464 18.7879 56.3466 19.0371 55.1663 19.0371ZM55.4708 17.3745C56.1925 17.3745 56.8165 17.248 57.3426 16.9951C57.8766 16.7348 58.305 16.3963 58.6283 15.9798C58.9516 15.5557 59.162 15.0945 59.26 14.5962C59.3727 14.2242 59.4327 13.8114 59.4403 13.3576C59.4553 12.8964 59.4627 12.5431 59.4627 12.2976L60.1621 12.5989C59.508 12.6881 58.8652 12.7737 58.2335 12.8555C57.6021 12.9373 57.0043 13.0266 56.4405 13.1233C55.8766 13.2126 55.3693 13.3204 54.918 13.4469C54.5873 13.551 54.2754 13.6849 53.9821 13.8486C53.6964 14.0122 53.4634 14.2242 53.2828 14.4846C53.11 14.7375 53.0235 15.0536 53.0235 15.433C53.0235 15.7603 53.1062 16.0727 53.2716 16.3703C53.4445 16.6678 53.7076 16.9096 54.0609 17.0956C54.4219 17.2815 54.8918 17.3745 55.4708 17.3745Z" fill="var(--fill-0, white)"/>
<path id="Vector_6" d="M47.6661 18.7023V2.30002H49.6735V18.7023H47.6661Z" fill="var(--fill-0, white)"/>
<path id="Vector_7" d="M40.746 19.0371C39.5506 19.0371 38.5056 18.7767 37.6109 18.256C36.7238 17.7278 36.0321 16.9951 35.5358 16.0579C35.0397 15.1131 34.7915 14.0122 34.7915 12.7551C34.7915 11.4384 35.0359 10.3003 35.5246 9.34072C36.0133 8.3737 36.6936 7.62984 37.5658 7.10913C38.4453 6.58099 39.4753 6.3169 40.6557 6.3169C41.8811 6.3169 42.9226 6.59586 43.7797 7.15377C44.6441 7.71165 45.2908 8.5076 45.7192 9.54158C46.1554 10.5756 46.3432 11.8067 46.2832 13.2349H44.2531V12.5208C44.2307 11.0405 43.9262 9.93582 43.3398 9.20684C42.7534 8.4704 41.8811 8.1022 40.7234 8.1022C39.483 8.1022 38.5394 8.49644 37.8928 9.28493C37.2463 10.0734 36.923 11.2041 36.923 12.677C36.923 14.0978 37.2463 15.1987 37.8928 15.9798C38.5394 16.7608 39.4603 17.1513 40.6557 17.1513C41.4601 17.1513 42.1594 16.9691 42.7534 16.6046C43.3472 16.2401 43.8135 15.7157 44.1518 15.0313L46.0801 15.6896C45.6065 16.7534 44.8924 17.5791 43.9374 18.1667C42.99 18.7469 41.9264 19.0371 40.746 19.0371ZM36.2463 13.2349V11.6393H45.2457V13.2349H36.2463Z" fill="var(--fill-0, white)"/>
<path id="Vector_8" d="M28.0569 19.0371C26.9218 19.0371 25.9482 18.7581 25.1362 18.2002C24.3242 17.6349 23.6964 16.8724 23.2529 15.9128C22.8169 14.9532 22.5987 13.8709 22.5987 12.6658C22.5987 11.4607 22.8169 10.3784 23.2529 9.41883C23.6964 8.45925 24.3242 7.70423 25.1362 7.15377C25.9482 6.59586 26.918 6.3169 28.0457 6.3169C29.1961 6.3169 30.162 6.59215 30.944 7.14261C31.726 7.69307 32.316 8.44809 32.7146 9.40767C33.1206 10.3673 33.3236 11.4533 33.3236 12.6658C33.3236 13.8635 33.1206 14.9458 32.7146 15.9128C32.316 16.8724 31.726 17.6349 30.944 18.2002C30.162 18.7581 29.1999 19.0371 28.0569 19.0371ZM28.3052 17.2183C29.1246 17.2183 29.7975 17.0249 30.3238 16.6381C30.8501 16.2438 31.2373 15.7045 31.4854 15.0202C31.741 14.3284 31.8687 13.5436 31.8687 12.6658C31.8687 11.7732 31.741 10.9884 31.4854 10.3115C31.2373 9.62712 30.8537 9.09526 30.335 8.71589C29.8163 8.32906 29.1584 8.13567 28.3614 8.13567C27.5344 8.13567 26.8503 8.3365 26.309 8.73821C25.7753 9.13989 25.3769 9.68292 25.1136 10.3673C24.8579 11.0516 24.7302 11.8178 24.7302 12.6658C24.7302 13.5213 24.8617 14.2949 25.1248 14.9867C25.3881 15.671 25.7826 16.2141 26.309 16.6158C26.8427 17.0175 27.5082 17.2183 28.3052 17.2183ZM31.8687 18.7023V9.8317H31.6431V2.63475H33.6619V18.7023H31.8687Z" fill="var(--fill-0, white)"/>
<path id="Vector_9" fill-rule="evenodd" clip-rule="evenodd" d="M10.1908 0H0V20.166H10.1908C15.819 20.166 20.3816 15.6517 20.3816 10.083C20.3816 4.51431 15.819 0 10.1908 0ZM11.1464 17.2929C10.9122 17.2246 10.672 16.9488 10.621 16.6848C10.5879 16.5128 10.627 16.3941 10.8762 15.9166C11.885 13.9885 12.3233 12.2147 12.3233 10.0642C12.3233 7.98492 11.936 6.36537 10.9723 4.42547C10.7651 4.01018 10.597 3.62163 10.597 3.56525C10.597 3.35763 10.7711 3.05804 10.9603 2.94235C11.2184 2.78219 11.6538 2.81185 11.864 3.00464C11.945 3.07881 12.1522 3.41695 12.3263 3.75511C13.0169 5.09285 13.4882 6.56113 13.7224 8.08873C13.8665 9.03494 13.8966 10.8265 13.7795 11.6927C13.5663 13.2885 13.14 14.7152 12.4554 16.1093C12.0411 16.9517 11.7829 17.2988 11.5667 17.2988C11.5247 17.2988 11.4526 17.3107 11.4106 17.3225C11.3686 17.3344 11.2485 17.3225 11.1464 17.2929ZM8.33919 15.8424C7.97889 15.7386 7.7177 15.2996 7.82279 14.9733C7.84678 14.8932 8.01792 14.5284 8.20108 14.1605C8.97267 12.6033 9.29394 10.9363 9.13781 9.29893C9.0087 7.95227 8.76552 7.10396 8.15003 5.86406C7.73872 5.03056 7.7177 4.90302 7.95788 4.56488C8.18606 4.24453 8.75651 4.1941 9.05374 4.46403C9.26091 4.6509 9.90642 5.98273 10.1556 6.73613C10.9783 9.22775 10.8522 11.9062 9.79833 14.3534C9.25491 15.6081 8.87361 15.9966 8.33919 15.8424ZM4.97654 13.8046C5.03058 14.0389 5.22272 14.2733 5.4449 14.3711C5.54399 14.4156 5.7121 14.4394 5.81719 14.4305C6.16248 14.386 6.3336 14.2021 6.67888 13.511C7.27933 12.3037 7.49551 11.405 7.49852 10.0969C7.50152 8.82434 7.27035 7.83067 6.7059 6.68572C6.3396 5.94119 6.12645 5.73653 5.7151 5.73653C5.47193 5.73653 5.39686 5.76321 5.22272 5.92635C4.87145 6.25562 4.88046 6.42172 5.29778 7.25522C6.24652 9.15656 6.23752 11.0282 5.26475 12.9741C5.00056 13.5021 4.94351 13.6622 4.97654 13.8046ZM2.74277 13.0008C2.56563 12.9296 2.36448 12.6923 2.30443 12.4846C2.23838 12.2533 2.29242 12.0694 2.55662 11.6393C2.8989 11.0846 2.97697 10.788 2.97697 10.0642C2.97697 9.34048 2.8989 9.04088 2.55662 8.48916C2.43955 8.30229 2.32545 8.07685 2.29843 7.98788C2.18734 7.62303 2.49659 7.17514 2.91091 7.09802C3.26218 7.03275 3.50238 7.187 3.82663 7.68532C4.76036 9.1269 4.76036 11.049 3.82663 12.4787C3.49638 12.98 3.13007 13.158 2.74277 13.0008Z" fill="var(--fill-0, white)"/>
</g>
<defs>
<clipPath id="clip0_3301_339">
<rect width="108" height="20.166" fill="white"/>
</clipPath>
</defs>
</svg>
