<svg preserveAspectRatio="none" width="100%" height="100%" overflow="visible" style="display: block;" viewBox="0 0 24 24" fill="none" xmlns="http://www.w3.org/2000/svg">
<g id="Stack 1">
<path id="Vector" opacity="0.2" d="M21 7.5L12 12.75L3 7.5L12 2.25L21 7.5Z" fill="var(--fill-0, #ADFF85)"/>
<path id="Vector_2" d="M21.648 16.125C21.7471 16.2969 21.774 16.5012 21.7228 16.6929C21.6717 16.8846 21.5466 17.0483 21.375 17.148L12.375 22.398C12.2603 22.4649 12.1298 22.5002 11.997 22.5002C11.8642 22.5002 11.7337 22.4649 11.619 22.398L2.619 17.148C2.44714 17.0477 2.32214 16.8833 2.27151 16.6909C2.22087 16.4985 2.24875 16.2939 2.349 16.122C2.44925 15.9501 2.61367 15.8251 2.80608 15.7745C2.99849 15.7239 3.20314 15.7517 3.375 15.852L12 20.882L20.625 15.852C20.7969 15.7529 21.0012 15.726 21.1929 15.7772C21.3846 15.8283 21.5483 15.9534 21.648 16.125ZM20.625 11.352L12 16.382L3.375 11.352C3.20411 11.2662 3.00689 11.2489 2.82367 11.3036C2.64045 11.3584 2.48507 11.4811 2.38929 11.6466C2.29351 11.8121 2.26456 12.0079 2.30838 12.1941C2.35219 12.3802 2.46545 12.5426 2.625 12.648L11.625 17.898C11.7397 17.9649 11.8702 18.0002 12.003 18.0002C12.1358 18.0002 12.2663 17.9649 12.381 17.898L21.381 12.648C21.4661 12.5984 21.5406 12.5324 21.6002 12.454C21.6598 12.3756 21.7034 12.2862 21.7285 12.1909C21.7536 12.0956 21.7596 11.9964 21.7463 11.8988C21.733 11.8011 21.7006 11.7071 21.651 11.622C21.6014 11.5369 21.5354 11.4624 21.457 11.4028C21.3786 11.3432 21.2892 11.2996 21.1939 11.2745C21.0986 11.2494 20.9994 11.2434 20.9018 11.2567C20.8041 11.27 20.7101 11.3024 20.625 11.352ZM2.25 7.5C2.25027 7.36861 2.28505 7.23959 2.35086 7.12586C2.41667 7.01214 2.51121 6.9177 2.625 6.852L11.625 1.602C11.7397 1.53505 11.8702 1.49978 12.003 1.49978C12.1358 1.49978 12.2663 1.53505 12.381 1.602L21.381 6.852C21.4943 6.91803 21.5883 7.01261 21.6537 7.12631C21.719 7.24001 21.7534 7.36886 21.7534 7.5C21.7534 7.63114 21.719 7.75999 21.6537 7.87369C21.5883 7.98739 21.4943 8.08197 21.381 8.148L12.381 13.398C12.2663 13.4649 12.1358 13.5002 12.003 13.5002C11.8702 13.5002 11.7397 13.4649 11.625 13.398L2.625 8.148C2.51121 8.0823 2.41667 7.98786 2.35086 7.87414C2.28505 7.76041 2.25027 7.63139 2.25 7.5ZM4.489 7.5L12 11.882L19.511 7.5L12 3.118L4.489 7.5Z" fill="var(--fill-0, #ADFF85)"/>
</g>
</svg>
