<svg preserveAspectRatio="none" width="100%" height="100%" overflow="visible" style="display: block;" viewBox="0 0 24 24" fill="none" xmlns="http://www.w3.org/2000/svg">
<g id="TerminalWindow 1">
<path id="Vector" opacity="0.2" d="M21 5.25V18.75C21 18.9489 20.921 19.1397 20.7803 19.2803C20.6397 19.421 20.4489 19.5 20.25 19.5H3.75C3.55109 19.5 3.36032 19.421 3.21967 19.2803C3.07902 19.1397 3 18.9489 3 18.75V5.25C3 5.05109 3.07902 4.86032 3.21967 4.71967C3.36032 4.57902 3.55109 4.5 3.75 4.5H20.25C20.4489 4.5 20.6397 4.57902 20.7803 4.71967C20.921 4.86032 21 5.05109 21 5.25Z" fill="var(--fill-0, #ADFF85)"/>
<path id="Vector_2" d="M12 12C12.0001 12.1125 11.9749 12.2236 11.9263 12.325C11.8776 12.4265 11.8068 12.5157 11.719 12.586L7.969 15.586C7.89205 15.6476 7.80371 15.6934 7.70905 15.7209C7.61438 15.7483 7.51523 15.7569 7.41727 15.746C7.21942 15.7241 7.03839 15.6244 6.914 15.469C6.85241 15.392 6.80658 15.3037 6.77913 15.209C6.75168 15.1144 6.74314 15.0152 6.754 14.9173C6.77594 14.7194 6.87558 14.5384 7.031 14.414L10.05 12L7.031 9.586C6.87558 9.46161 6.77594 9.28058 6.754 9.08273C6.73206 8.88488 6.78961 8.68642 6.914 8.531C7.03839 8.37558 7.21942 8.27594 7.41727 8.254C7.61512 8.23206 7.81358 8.28961 7.969 8.414L11.719 11.414C11.8068 11.4843 11.8776 11.5735 11.9263 11.675C11.9749 11.7764 12.0001 11.8875 12 12ZM16.5 14.25H12.75C12.5511 14.25 12.3603 14.329 12.2197 14.4697C12.079 14.6103 12 14.8011 12 15C12 15.1989 12.079 15.3897 12.2197 15.5303C12.3603 15.671 12.5511 15.75 12.75 15.75H16.5C16.6989 15.75 16.8897 15.671 17.0303 15.5303C17.171 15.3897 17.25 15.1989 17.25 15C17.25 14.8011 17.171 14.6103 17.0303 14.4697C16.8897 14.329 16.6989 14.25 16.5 14.25ZM21.75 5.25V18.75C21.75 19.1478 21.592 19.5294 21.3107 19.8107C21.0294 20.092 20.6478 20.25 20.25 20.25H3.75C3.35218 20.25 2.97064 20.092 2.68934 19.8107C2.40804 19.5294 2.25 19.1478 2.25 18.75V5.25C2.25 4.85218 2.40804 4.47064 2.68934 4.18934C2.97064 3.90804 3.35218 3.75 3.75 3.75H20.25C20.6478 3.75 21.0294 3.90804 21.3107 4.18934C21.592 4.47064 21.75 4.85218 21.75 5.25ZM20.25 18.75V5.25H3.75V18.75H20.25Z" fill="var(--fill-0, #ADFF85)"/>
</g>
</svg>
