<svg preserveAspectRatio="none" width="100%" height="100%" overflow="visible" style="display: block;" viewBox="0 0 108 21" fill="none" xmlns="http://www.w3.org/2000/svg">
<g id="luminous">
<path id="Vector" d="M2.66021 2.32741C4.13069 0.923462 6.12741 0.104007 8.15115 0.00207717C8.84377 0.00207717 9.53844 0.00623414 10.2311 0C10.1957 0.742532 10.2311 1.48714 10.2102 2.22964C10.1125 3.8894 9.49892 5.51172 8.46521 6.81374C7.1216 8.56504 5.06666 9.74016 2.88485 10.0438C1.93226 10.1978 0.965084 10.1 0.00625874 10.127C0.0228831 9.30961 -0.0291037 8.49016 0.0353862 7.67483C0.222587 5.65317 1.17726 3.71678 2.66021 2.32741Z" fill="var(--fill-0, white)"/>
<path id="Vector_2" d="M10.8725 0C11.615 0.00831219 12.3575 -0.0041565 13.1021 0.00415569C14.9553 0.135178 16.7836 0.846505 18.179 2.07991C19.7182 3.40064 20.7727 5.28919 21.0432 7.30669C21.1616 8.24263 21.0869 9.18898 21.1327 10.1291C20.4836 10.127 19.8369 10.125 19.1878 10.1291C17.5926 10.0854 16.0244 9.56962 14.6891 8.70022C14.0734 8.25929 13.4411 7.81212 12.9794 7.20061C11.9665 6.06913 11.2781 4.64859 11.0181 3.15106C10.8226 2.11108 10.9016 1.05036 10.8725 0Z" fill="var(--fill-0, white)"/>
<path id="Vector_3" d="M0.00768442 10.7239C0.667024 10.7614 1.32844 10.6927 1.98567 10.7655C4.79977 10.8258 7.53071 12.4066 8.98869 14.813C9.82484 16.1608 10.2741 17.7583 10.2159 19.345C10.2137 19.8652 10.2221 20.3829 10.2075 20.901C9.16342 20.8697 8.1089 20.9549 7.07519 20.7531C4.77899 20.3664 2.6679 18.9998 1.39705 17.0489C0.434071 15.6304 -0.046381 13.8978 0.00352738 12.1861C0.00352738 11.6973 0.00352832 11.2106 0.00768442 10.7239Z" fill="var(--fill-0, white)"/>
<path id="Vector_4" d="M17.6184 10.9444C18.75 10.6927 19.9165 10.7343 21.0669 10.7343L21.1169 10.7842C21.0919 11.872 21.1771 12.9722 20.9587 14.0475C20.4991 16.4602 18.9018 18.6149 16.7532 19.7983C15.4158 20.5432 13.8808 20.9092 12.3521 20.8926C11.8633 20.8947 11.3725 20.8842 10.8837 20.8986C10.8837 19.998 10.8462 19.0935 10.9482 18.1968C11.1853 16.0276 12.3583 14.008 14.0451 12.6436C15.0892 11.82 16.3164 11.2231 17.6184 10.9444Z" fill="var(--fill-0, white)"/>
<path id="Vector_5" d="M29.6552 16.8724C29.6552 17.2385 29.5284 17.5483 29.2751 17.8019C29.0356 18.0414 28.7327 18.1611 28.3668 18.1611C28.0146 18.1611 27.7187 18.0414 27.4795 17.8019C27.24 17.5483 27.1203 17.2385 27.1203 16.8724V3.81717C27.1203 3.45102 27.24 3.14822 27.4795 2.90882C27.7328 2.65534 28.0427 2.52857 28.409 2.52857C28.775 2.52857 29.0708 2.65534 29.2963 2.90882C29.5354 3.14822 29.6552 3.45102 29.6552 3.81717V16.8724Z" fill="var(--fill-0, white)"/>
<path id="Vector_6" d="M39.8302 6.85924C40.1961 6.85924 40.499 6.98597 40.7385 7.23949C40.9777 7.47889 41.0975 7.78168 41.0975 8.14784V13.5136C41.0975 15.0064 40.6822 16.1894 39.8513 17.0626C39.0201 17.9358 37.8233 18.3721 36.2598 18.3721C34.6967 18.3721 33.4995 17.9358 32.6687 17.0626C31.8519 16.1894 31.4433 15.0064 31.4433 13.5136V8.14784C31.4433 7.78168 31.5631 7.47889 31.8026 7.23949C32.0421 6.98597 32.3446 6.85924 32.7109 6.85924C33.0772 6.85924 33.3798 6.98597 33.6193 7.23949C33.8588 7.47889 33.9786 7.78168 33.9786 8.14784V13.5136C33.9786 14.3727 34.1687 15.0134 34.5488 15.4359C34.9292 15.8444 35.4994 16.0485 36.2598 16.0485C37.0347 16.0485 37.612 15.8444 37.9924 15.4359C38.3724 15.0134 38.5626 14.3727 38.5626 13.5136V8.14784C38.5626 7.78168 38.6823 7.47889 38.9218 7.23949C39.161 6.98597 39.4639 6.85924 39.8302 6.85924Z" fill="var(--fill-0, white)"/>
<path id="Vector_7" d="M48.7217 6.64798C49.8485 6.64798 50.6793 6.92261 51.2147 7.47184C51.7497 8.00703 52.1019 8.70412 52.2706 9.5632L51.9117 9.37308L52.0808 9.0351C52.2495 8.71117 52.5101 8.36614 52.8624 7.99998C53.2142 7.61974 53.6369 7.30285 54.1296 7.04937C54.6368 6.78176 55.2 6.64798 55.8199 6.64798C56.8339 6.64798 57.6014 6.86629 58.1223 7.30285C58.6576 7.73942 59.0236 8.32388 59.2208 9.05623C59.4181 9.77446 59.5167 10.5772 59.5167 11.4644V16.8724C59.5167 17.2386 59.3969 17.5483 59.1574 17.8019C58.9179 18.0414 58.6154 18.1612 58.2491 18.1612C57.8831 18.1612 57.5802 18.0414 57.3407 17.8019C57.1012 17.5483 56.9815 17.2386 56.9815 16.8724V11.4644C56.9815 10.9997 56.9255 10.5843 56.8127 10.2181C56.7 9.83782 56.4958 9.53506 56.1999 9.30972C55.9044 9.08437 55.4817 8.9717 54.9326 8.9717C54.3973 8.9717 53.9398 9.08437 53.5594 9.30972C53.179 9.53506 52.8905 9.83782 52.6933 10.2181C52.5101 10.5843 52.4186 10.9997 52.4186 11.4644V16.8724C52.4186 17.2386 52.2988 17.5483 52.0597 17.8019C51.8202 18.0414 51.5173 18.1612 51.1513 18.1612C50.785 18.1612 50.4821 18.0414 50.243 17.8019C50.0034 17.5483 49.8837 17.2386 49.8837 16.8724V11.4644C49.8837 10.9997 49.8273 10.5843 49.7146 10.2181C49.6019 9.83782 49.3976 9.53506 49.1021 9.30972C48.8063 9.08437 48.3836 8.9717 47.8345 8.9717C47.2995 8.9717 46.8416 9.08437 46.4613 9.30972C46.0812 9.53506 45.7924 9.83782 45.5952 10.2181C45.4124 10.5843 45.3208 10.9997 45.3208 11.4644V16.8724C45.3208 17.2386 45.201 17.5483 44.9615 17.8019C44.722 18.0414 44.4195 18.1612 44.0532 18.1612C43.6869 18.1612 43.3843 18.0414 43.1448 17.8019C42.9053 17.5483 42.7856 17.2386 42.7856 16.8724V8.14784C42.7856 7.78168 42.9053 7.47889 43.1448 7.23949C43.3843 6.98597 43.6869 6.85924 44.0532 6.85924C44.4195 6.85924 44.722 6.98597 44.9615 7.23949C45.201 7.47889 45.3208 7.78168 45.3208 8.14784V9.05623L45.0038 8.99283C45.1306 8.75343 45.3067 8.49991 45.5318 8.23234C45.7572 7.95067 46.0319 7.69014 46.3559 7.45071C46.6796 7.21131 47.0389 7.02119 47.433 6.88034C47.8275 6.72544 48.2572 6.64798 48.7217 6.64798Z" fill="var(--fill-0, white)"/>
<path id="Vector_8" d="M63.5911 16.8725C63.5911 17.2386 63.4714 17.5483 63.2319 17.8019C62.9927 18.0414 62.6898 18.1612 62.3235 18.1612C61.9576 18.1612 61.6547 18.0414 61.4152 17.8019C61.176 17.5483 61.0563 17.2386 61.0563 16.8725V8.14786C61.0563 7.7817 61.176 7.4789 61.4152 7.23951C61.6547 6.98598 61.9576 6.85926 62.3235 6.85926C62.6898 6.85926 62.9927 6.98598 63.2319 7.23951C63.4714 7.4789 63.5911 7.7817 63.5911 8.14786V16.8725ZM62.3024 5.48613C61.8237 5.48613 61.4856 5.40868 61.2884 5.25374C61.0915 5.09884 60.9929 4.82422 60.9929 4.42988V4.0285C60.9929 3.62011 61.0985 3.34546 61.3095 3.20464C61.5349 3.0497 61.873 2.97225 62.3235 2.97225C62.8166 2.97225 63.1618 3.0497 63.3587 3.20464C63.5559 3.35954 63.6545 3.63416 63.6545 4.0285V4.42988C63.6545 4.8383 63.5489 5.11997 63.3375 5.27487C63.1266 5.41572 62.7814 5.48613 62.3024 5.48613Z" fill="var(--fill-0, white)"/>
<path id="Vector_9" d="M71.1819 6.64798C72.2241 6.64798 73.0127 6.86629 73.5477 7.30285C74.0972 7.73942 74.4701 8.32388 74.6674 9.05623C74.8787 9.77446 74.9844 10.5772 74.9844 11.4644V16.8724C74.9844 17.2386 74.8646 17.5483 74.6251 17.8019C74.3856 18.0414 74.0831 18.1612 73.7168 18.1612C73.3508 18.1612 73.0479 18.0414 72.8084 17.8019C72.5689 17.5483 72.4492 17.2386 72.4492 16.8724V11.4644C72.4492 10.9997 72.3861 10.5843 72.2593 10.2181C72.1466 9.83782 71.9353 9.53506 71.6253 9.30972C71.3157 9.08437 70.872 8.9717 70.2947 8.9717C69.7311 8.9717 69.2525 9.08437 68.858 9.30972C68.478 9.53506 68.1821 9.83782 67.9708 10.2181C67.7736 10.5843 67.6749 10.9997 67.6749 11.4644V16.8724C67.6749 17.2386 67.5555 17.5483 67.316 17.8019C67.0765 18.0414 66.7736 18.1612 66.4077 18.1612C66.0414 18.1612 65.7385 18.0414 65.4993 17.8019C65.2598 17.5483 65.1401 17.2386 65.1401 16.8724V8.14784C65.1401 7.78168 65.2598 7.47889 65.4993 7.23949C65.7385 6.98597 66.0414 6.85924 66.4077 6.85924C66.7736 6.85924 67.0765 6.98597 67.316 7.23949C67.5555 7.47889 67.6749 7.78168 67.6749 8.14784V9.05623L67.3583 8.99283C67.4851 8.75343 67.6679 8.49991 67.9074 8.23234C68.1469 7.95067 68.4287 7.69014 68.7523 7.45071C69.0764 7.21131 69.4427 7.02119 69.8509 6.88034C70.2595 6.72544 70.7029 6.64798 71.1819 6.64798Z" fill="var(--fill-0, white)"/>
<path id="Vector_10" d="M87.5263 12.5207C87.5263 13.6755 87.2656 14.6966 86.7447 15.5838C86.2375 16.457 85.5475 17.14 84.6744 17.6329C83.8154 18.126 82.8507 18.3722 81.7803 18.3722C80.7099 18.3722 79.7382 18.126 78.865 17.6329C78.006 17.14 77.316 16.457 76.7947 15.5838C76.2879 14.6966 76.0343 13.6755 76.0343 12.5207C76.0343 11.3659 76.2879 10.3519 76.7947 9.47871C77.316 8.59145 78.006 7.9014 78.865 7.40848C79.7382 6.90147 80.7099 6.64798 81.7803 6.64798C82.8507 6.64798 83.8154 6.90147 84.6744 7.40848C85.5475 7.9014 86.2375 8.59145 86.7447 9.47871C87.2656 10.3519 87.5263 11.3659 87.5263 12.5207ZM84.9914 12.5207C84.9914 11.8025 84.8435 11.1828 84.5476 10.6617C84.2659 10.1265 83.8788 9.7111 83.3857 9.41535C82.907 9.11959 82.3717 8.9717 81.7803 8.9717C81.1889 8.9717 80.6465 9.11959 80.1538 9.41535C79.6748 9.7111 79.2873 10.1265 78.9918 10.6617C78.7101 11.1828 78.5692 11.8025 78.5692 12.5207C78.5692 13.2249 78.7101 13.8445 78.9918 14.3797C79.2873 14.9008 79.6748 15.3092 80.1538 15.6049C80.6465 15.9007 81.1889 16.0485 81.7803 16.0485C82.3717 16.0485 82.907 15.9007 83.3857 15.6049C83.8788 15.3092 84.2659 14.9008 84.5476 14.3797C84.8435 13.8445 84.9914 13.2249 84.9914 12.5207Z" fill="var(--fill-0, white)"/>
<path id="Vector_11" d="M96.9744 6.85924C97.3407 6.85924 97.6436 6.98597 97.8831 7.23949C98.1222 7.47889 98.242 7.78168 98.242 8.14784V13.5136C98.242 15.0064 97.8267 16.1894 96.9955 17.0626C96.1646 17.9358 94.9678 18.3721 93.4044 18.3721C91.8412 18.3721 90.6441 17.9358 89.8132 17.0626C88.9964 16.1894 88.5879 15.0064 88.5879 13.5136V8.14784C88.5879 7.78168 88.7076 7.47889 88.9471 7.23949C89.1866 6.98597 89.4892 6.85924 89.8555 6.85924C90.2218 6.85924 90.5243 6.98597 90.7638 7.23949C91.0033 7.47889 91.1231 7.78168 91.1231 8.14784V13.5136C91.1231 14.3727 91.3129 15.0134 91.6933 15.4359C92.0737 15.8444 92.6439 16.0485 93.4044 16.0485C94.1789 16.0485 94.7565 15.8444 95.1365 15.4359C95.5169 15.0134 95.7071 14.3727 95.7071 13.5136V8.14784C95.7071 7.78168 95.8269 7.47889 96.066 7.23949C96.3055 6.98597 96.6084 6.85924 96.9744 6.85924Z" fill="var(--fill-0, white)"/>
<path id="Vector_12" d="M99.2754 16.4077C99.1345 16.2105 99.0711 15.957 99.0852 15.6472C99.0993 15.3374 99.2824 15.0698 99.6346 14.8444C99.8597 14.7036 100.099 14.6473 100.353 14.6754C100.606 14.6895 100.853 14.8163 101.092 15.0557C101.501 15.4641 101.93 15.781 102.381 16.0063C102.831 16.2316 103.395 16.3443 104.071 16.3443C104.282 16.3302 104.514 16.3021 104.768 16.2598C105.021 16.2035 105.24 16.0908 105.423 15.9218C105.62 15.7387 105.718 15.4641 105.718 15.0979C105.718 14.7881 105.613 14.5416 105.401 14.3586C105.19 14.1755 104.909 14.0206 104.556 13.8938C104.219 13.7671 103.838 13.6474 103.416 13.5347C102.979 13.4079 102.528 13.2671 102.064 13.1122C101.613 12.9573 101.198 12.7601 100.817 12.5207C100.437 12.2672 100.127 11.9362 99.8879 11.5278C99.6487 11.1194 99.529 10.6054 99.529 9.98572C99.529 9.28154 99.7259 8.68303 100.12 8.19011C100.515 7.69719 101.022 7.31694 101.641 7.04937C102.275 6.78176 102.937 6.64798 103.627 6.64798C104.064 6.64798 104.521 6.70431 105 6.81698C105.479 6.91556 105.937 7.08455 106.373 7.32399C106.81 7.5493 107.176 7.85209 107.472 8.23234C107.627 8.44359 107.718 8.69708 107.746 8.99283C107.775 9.28858 107.641 9.55616 107.345 9.79559C107.134 9.96458 106.887 10.042 106.606 10.0279C106.324 9.99981 106.092 9.90122 105.909 9.73223C105.669 9.42239 105.345 9.17591 104.937 8.99283C104.542 8.80975 104.085 8.71821 103.564 8.71821C103.353 8.71821 103.12 8.74639 102.867 8.80271C102.627 8.84497 102.416 8.9506 102.233 9.11959C102.05 9.2745 101.958 9.52802 101.958 9.88009C101.958 10.204 102.064 10.4645 102.275 10.6617C102.486 10.8448 102.768 10.9997 103.12 11.1265C103.486 11.2391 103.873 11.3518 104.282 11.4644C104.704 11.5771 105.134 11.7109 105.57 11.8658C106.007 12.0208 106.408 12.2249 106.775 12.4785C107.141 12.7319 107.436 13.0629 107.662 13.4713C107.887 13.8656 108 14.3726 108 14.9923C108 15.7106 107.789 16.3232 107.366 16.8302C106.944 17.3372 106.415 17.7244 105.782 17.9921C105.148 18.2457 104.5 18.3722 103.838 18.3722C103.007 18.3722 102.177 18.2316 101.346 17.9498C100.515 17.654 99.8245 17.14 99.2754 16.4077Z" fill="var(--fill-0, white)"/>
</g>
</svg>
