<svg preserveAspectRatio="none" width="100%" height="100%" overflow="visible" style="display: block;" viewBox="0 0 24 24" fill="none" xmlns="http://www.w3.org/2000/svg">
<g id="Users 1">
<path id="Vector" opacity="0.2" d="M12.75 10.125C12.75 11.4179 12.2364 12.6579 11.3221 13.5721C10.4079 14.4864 9.16793 15 7.875 15C6.58207 15 5.34209 14.4864 4.42785 13.5721C3.51361 12.6579 3 11.4179 3 10.125C3 8.83207 3.51361 7.59209 4.42785 6.67785C5.34209 5.76361 6.58207 5.25 7.875 5.25C9.16793 5.25 10.4079 5.76361 11.3221 6.67785C12.2364 7.59209 12.75 8.83207 12.75 10.125Z" fill="var(--fill-0, #ADFF85)"/>
<path id="Vector_2" d="M10.992 14.805C11.9972 14.1358 12.7604 13.1609 13.1687 12.0245C13.577 10.888 13.6087 9.65029 13.2592 8.49439C12.9097 7.3385 12.1974 6.32578 11.2278 5.606C10.2581 4.88622 9.08259 4.49759 7.875 4.49759C6.66741 4.49759 5.49188 4.88622 4.52224 5.606C3.55261 6.32578 2.84035 7.3385 2.4908 8.49439C2.14126 9.65029 2.17298 10.888 2.58127 12.0245C2.98957 13.1609 3.75277 14.1358 4.758 14.805C2.93934 15.4749 1.38606 16.7149 0.33 18.34C0.275533 18.4225 0.2379 18.5149 0.219266 18.6119C0.200632 18.709 0.201363 18.8088 0.221418 18.9055C0.241472 19.0023 0.280455 19.0942 0.336125 19.1758C0.391795 19.2575 0.463054 19.3273 0.545807 19.3814C0.628561 19.4354 0.721176 19.4725 0.818329 19.4906C0.915482 19.5088 1.01526 19.5075 1.11192 19.4869C1.20859 19.4664 1.30023 19.4269 1.38159 19.3708C1.46295 19.3147 1.53242 19.243 1.586 19.16C2.26697 18.1125 3.19883 17.2518 4.29695 16.6559C5.39506 16.06 6.62463 15.7479 7.874 15.7479C9.12337 15.7479 10.3529 16.06 11.4511 16.6559C12.5492 17.2518 13.481 18.1125 14.162 19.16C14.2712 19.3254 14.4415 19.4408 14.6356 19.481C14.8297 19.5213 15.0318 19.483 15.1978 19.3747C15.3638 19.2663 15.4801 19.0966 15.5214 18.9028C15.5626 18.7089 15.5255 18.5066 15.418 18.34C14.3622 16.7151 12.8103 15.4751 10.992 14.805ZM3.75 10.125C3.75 9.03098 4.1846 7.98177 4.95818 7.20818C5.73177 6.4346 6.78098 6 7.875 6C8.96902 6 10.0182 6.4346 10.7918 7.20818C11.5654 7.98177 12 9.03098 12 10.125C12 11.219 11.5654 12.2682 10.7918 13.0418C10.0182 13.8154 8.96902 14.25 7.875 14.25C6.78098 14.25 5.73177 13.8154 4.95818 13.0418C4.1846 12.2682 3.75 11.219 3.75 10.125ZM23.45 19.378C23.2835 19.4864 23.0808 19.5244 22.8864 19.4835C22.692 19.4426 22.5217 19.3263 22.413 19.16C21.7328 18.1119 20.8011 17.2508 19.7028 16.6551C18.6044 16.0595 17.3744 15.7483 16.125 15.75C15.9261 15.75 15.7353 15.671 15.5947 15.5303C15.454 15.3897 15.375 15.1989 15.375 15C15.375 14.8011 15.454 14.6103 15.5947 14.4697C15.7353 14.329 15.9261 14.25 16.125 14.25C16.7326 14.2496 17.3326 14.115 17.8821 13.8558C18.4317 13.5966 18.9171 13.2192 19.3039 12.7506C19.6906 12.282 19.9691 11.7337 20.1193 11.145C20.2695 10.5563 20.2879 9.94165 20.173 9.34502C20.0581 8.74839 19.8128 8.18451 19.4547 7.69368C19.0966 7.20285 18.6345 6.79719 18.1014 6.5057C17.5683 6.21421 16.9773 6.04409 16.3709 6.00749C15.7644 5.97089 15.1573 6.06873 14.593 6.294C14.4083 6.36786 14.2018 6.36532 14.0189 6.28693C13.8361 6.20854 13.6919 6.06072 13.618 5.876C13.5441 5.69128 13.5467 5.48478 13.6251 5.30193C13.7035 5.11908 13.8513 4.97486 14.036 4.901C15.3275 4.38564 16.764 4.36688 18.0685 4.84834C19.373 5.32981 20.4529 6.27737 21.0999 7.50817C21.7468 8.73898 21.915 10.1658 21.5719 11.5133C21.2288 12.8608 20.3988 14.0335 19.242 14.805C21.0603 15.4751 22.6132 16.7151 23.669 18.34C23.7777 18.5066 23.8159 18.7095 23.775 18.9041C23.7341 19.0988 23.6166 19.2693 23.45 19.378Z" fill="var(--fill-0, #ADFF85)"/>
</g>
</svg>
