<svg preserveAspectRatio="none" width="100%" height="100%" overflow="visible" style="display: block;" viewBox="0 0 16 16" fill="none" xmlns="http://www.w3.org/2000/svg">
<g id="Lightning 1">
<path id="Vector" d="M13.73 7.32858C13.673 7.08458 13.498 6.88558 13.263 6.79758L9.86102 5.52158L10.736 1.14658C10.802 0.817581 10.642 0.484581 10.343 0.331581C10.045 0.178581 9.68102 0.242581 9.45202 0.487581L2.45202 7.98758C2.28102 8.17058 2.21202 8.42758 2.26902 8.67158C2.32702 8.91558 2.50202 9.11458 2.73702 9.20258L6.13902 10.4776L5.26402 14.8526C5.19802 15.1816 5.35802 15.5146 5.65702 15.6676C5.95502 15.8206 6.31902 15.7566 6.54802 15.5116L13.548 8.01158C13.719 7.82858 13.787 7.57258 13.73 7.32858ZM7.25302 12.5586L7.73602 10.1466C7.80802 9.78558 7.60802 9.42558 7.26302 9.29658L4.31302 8.19158L8.74602 3.44158L8.26302 5.85258C8.19102 6.21358 8.39102 6.57358 8.73602 6.70258L11.688 7.80758L7.25302 12.5576V12.5586Z" fill="var(--fill-0, #ADFF85)"/>
</g>
</svg>
