<svg preserveAspectRatio="none" width="100%" height="100%" overflow="visible" style="display: block;" viewBox="0 0 18 18" fill="none" xmlns="http://www.w3.org/2000/svg">
<g id="linkedin">
<path id="Vector" d="M4 2C2.895 2 2 2.895 2 4V14C2 15.105 2.895 16 4 16H14C15.105 16 16 15.105 16 14V4C16 2.895 15.105 2 14 2H4ZM6.56 7.155V12.85H4.79V7.155H6.56ZM6.596 5.832C6.405 6.157 6.052 6.351 5.675 6.34C5.105 6.341 4.642 5.879 4.642 5.308C4.641 4.738 5.103 4.276 5.673 4.275C6.049 4.263 6.403 4.457 6.595 4.781C6.787 5.105 6.787 5.508 6.596 5.832ZM13.2 9.726V12.85H11.432V10.08C11.432 9.42 11.419 8.57 10.512 8.57C9.591 8.57 9.449 9.29 9.449 10.033V12.85H7.68V7.155H9.378V7.933H9.402C9.638 7.485 10.216 7.013 11.076 7.013C12.869 7.013 13.2 8.193 13.2 9.726Z" fill="var(--fill-0, #B5BDC5)"/>
</g>
</svg>
