<svg preserveAspectRatio="none" width="100%" height="100%" overflow="visible" style="display: block;" viewBox="0 0 58 24" fill="none" xmlns="http://www.w3.org/2000/svg">
<g id="loom 2">
<path id="Vector" d="M17.443 10.334H12.129L16.731 7.668L15.819 6.082L11.216 8.748L13.872 4.131L12.291 3.215L9.634 7.831V2.5H7.808V7.831L5.151 3.215L3.57 4.131L6.226 8.747L1.625 6.082L0.712 7.669L5.314 10.334H0V12.167H5.313L0.712 14.833L1.624 16.419L6.227 13.753L3.57 18.37L5.151 19.286L7.808 14.67V20H9.634V14.555L12.34 19.257L13.823 18.398L11.117 13.695L15.817 16.418L16.73 14.831L12.129 12.166H17.442V10.334H17.443ZM8.721 13.741C8.064 13.74 7.433 13.478 6.966 13.011C6.502 12.545 6.24 11.911 6.239 11.25C6.238 10.588 6.5 9.954 6.965 9.488C7.432 9.02 8.063 8.757 8.721 8.758C9.379 8.758 10.01 9.02 10.476 9.488C10.942 9.954 11.203 10.588 11.204 11.249C11.204 11.911 10.942 12.545 10.477 13.011C10.01 13.479 9.379 13.741 8.722 13.741H8.721ZM22.151 17.651V4.849H24.492V17.651H22.151ZM44.605 8.951H46.841V10.013C47.317 9.164 48.426 8.704 49.376 8.704C50.556 8.704 51.506 9.217 51.947 10.153C52.633 9.091 53.548 8.703 54.693 8.703C56.295 8.703 57.826 9.676 57.826 12.01V17.651H55.556V12.488C55.556 11.55 55.098 10.843 54.023 10.843C53.019 10.843 52.421 11.621 52.421 12.559V17.651H50.098V12.488C50.098 11.55 49.623 10.843 48.566 10.843C47.545 10.843 46.946 11.604 46.946 12.559V17.651H44.605V8.951ZM29.783 17.903C27.145 17.903 25.235 15.939 25.235 13.301C25.235 10.705 27.139 8.695 29.783 8.695C32.439 8.695 34.331 10.724 34.331 13.301C34.331 15.92 32.42 17.903 29.783 17.903ZM29.783 10.824C29.129 10.825 28.502 11.086 28.039 11.551C27.577 12.014 27.317 12.644 27.316 13.302C27.317 13.959 27.577 14.589 28.039 15.053C28.502 15.517 29.129 15.778 29.783 15.779C30.436 15.778 31.063 15.517 31.526 15.052C31.988 14.589 32.248 13.959 32.249 13.302C32.248 12.645 31.988 12.015 31.526 11.551C31.063 11.086 30.436 10.825 29.783 10.824ZM39.331 17.903C36.694 17.903 34.783 15.939 34.783 13.301C34.783 10.705 36.687 8.695 39.331 8.695C41.987 8.695 43.878 10.724 43.878 13.301C43.878 15.92 41.966 17.903 39.331 17.903ZM39.331 10.795C38.67 10.795 38.036 11.059 37.567 11.53C37.1 11.998 36.836 12.636 36.835 13.301C36.836 13.965 37.1 14.602 37.567 15.071C38.036 15.541 38.67 15.805 39.331 15.806C39.992 15.805 40.626 15.541 41.095 15.071C41.562 14.602 41.825 13.965 41.826 13.301C41.825 12.636 41.562 11.999 41.095 11.53C40.626 11.06 39.992 10.795 39.331 10.795Z" fill="var(--fill-0, #B5BDC5)"/>
</g>
</svg>
