<svg preserveAspectRatio="none" width="100%" height="100%" overflow="visible" style="display: block;" viewBox="0 0 253 260" fill="none" xmlns="http://www.w3.org/2000/svg">
<g id="Right">
<rect id="Rectangle 36" width="253" height="6" transform="matrix(-1 0 0 1 253 127)" fill="url(#paint0_linear_3301_487)"/>
<path id="Vector 71" d="M11 3H36.9438C96.3153 3 146.706 53.4612 187.618 98.4374C198.981 110.929 209.249 118.913 218.21 124.012C225.447 128.13 233.674 130 242 130V130" stroke="url(#paint1_linear_3301_487)" stroke-width="6"/>
<path id="Vector 72" d="M11 257H36.9438C96.3153 257 146.706 206.539 187.618 161.563C198.981 149.071 209.249 141.087 218.21 135.988C225.447 131.87 233.674 130 242 130V130" stroke="url(#paint2_linear_3301_487)" stroke-width="6"/>
</g>
<defs>
<linearGradient id="paint0_linear_3301_487" x1="9.85956" y1="3" x2="230.689" y2="11.2831" gradientUnits="userSpaceOnUse">
<stop stop-color="#141D1F"/>
<stop offset="1" stop-color="#141D1F" stop-opacity="0"/>
</linearGradient>
<linearGradient id="paint1_linear_3301_487" x1="11" y1="-2" x2="214.804" y2="124.105" gradientUnits="userSpaceOnUse">
<stop stop-color="#141D1F" stop-opacity="0"/>
<stop offset="1" stop-color="#141D1F"/>
</linearGradient>
<linearGradient id="paint2_linear_3301_487" x1="11" y1="262" x2="214.804" y2="135.895" gradientUnits="userSpaceOnUse">
<stop stop-color="#141D1F" stop-opacity="0"/>
<stop offset="1" stop-color="#141D1F"/>
</linearGradient>
</defs>
</svg>
