<svg preserveAspectRatio="none" width="100%" height="100%" overflow="visible" style="display: block;" viewBox="0 0 88 25" fill="none" xmlns="http://www.w3.org/2000/svg">
<g id="proline">
<path id="Vector" d="M10.9272 24.1545H3.06739L10.9272 12.2688H18.7871L10.9272 24.1545Z" fill="var(--fill-0, white)"/>
<path id="Vector_2" d="M8.05153 0H16.103L8.05153 12.2689H0L8.05153 0Z" fill="var(--fill-0, white)"/>
<path id="Vector_3" d="M34.8214 10.3397C34.8214 11.0684 34.6457 11.7519 34.2942 12.3897C33.9558 13.0274 33.4157 13.5415 32.6738 13.9321C31.9449 14.3225 31.0208 14.5178 29.9015 14.5178H27.6171V19.75H24.8838V6.12255H29.9015C30.9557 6.12255 31.8538 6.30475 32.5956 6.66921C33.3377 7.03365 33.8907 7.53475 34.2553 8.17254C34.6328 8.8103 34.8214 9.53269 34.8214 10.3397ZM29.7842 12.3115C30.5392 12.3115 31.0988 12.1425 31.4634 11.8039C31.8278 11.4526 32.01 10.9645 32.01 10.3397C32.01 9.01206 31.2681 8.34826 29.7842 8.34826H27.6171V12.3115H29.7842Z" fill="var(--fill-0, white)"/>
<path id="Vector_4" d="M38.7145 10.613C39.066 10.0403 39.5214 9.59122 40.0811 9.26584C40.6539 8.94044 41.3047 8.77774 42.0336 8.77774V11.6476H41.3111C40.4522 11.6476 39.8014 11.8494 39.3588 12.2531C38.9293 12.6565 38.7145 13.3593 38.7145 14.3615V19.75H35.9813V8.93393H38.7145V10.613Z" fill="var(--fill-0, white)"/>
<path id="Vector_5" d="M47.8965 19.9258C46.8551 19.9258 45.918 19.6981 45.085 19.2426C44.2521 18.774 43.5946 18.1166 43.1132 17.2706C42.6446 16.4245 42.4102 15.4485 42.4102 14.342C42.4102 13.2358 42.6511 12.2596 43.1327 11.4135C43.6273 10.5674 44.2976 9.91667 45.1437 9.46111C45.9897 8.99254 46.9333 8.75826 47.9747 8.75826C49.0158 8.75826 49.9594 8.99254 50.8054 9.46111C51.6515 9.91667 52.3154 10.5674 52.797 11.4135C53.2916 12.2596 53.5389 13.2358 53.5389 14.342C53.5389 15.4485 53.2849 16.4245 52.7775 17.2706C52.2827 18.1166 51.6059 18.774 50.747 19.2426C49.9009 19.6981 48.9507 19.9258 47.8965 19.9258ZM47.8965 17.5438C48.391 17.5438 48.8532 17.4267 49.2826 17.1926C49.7252 16.9453 50.0767 16.5807 50.3369 16.0992C50.5972 15.6176 50.7274 15.0319 50.7274 14.342C50.7274 13.3138 50.4542 12.5264 49.9074 11.9796C49.3737 11.4199 48.7165 11.1402 47.9356 11.1402C47.1546 11.1402 46.4972 11.4199 45.9637 11.9796C45.4429 12.5264 45.1828 13.3138 45.1828 14.342C45.1828 15.3703 45.4365 16.1643 45.9442 16.724C46.4647 17.2706 47.1155 17.5438 47.8965 17.5438Z" fill="var(--fill-0, white)"/>
<path id="Vector_6" d="M57.4961 17.5829H60.4315V19.7501H54.7629V4.44352H57.4961V17.5829Z" fill="var(--fill-0, white)"/>
<path id="Vector_7" d="M62.5518 7.64541C62.0703 7.64541 61.6666 7.49573 61.3414 7.19637C61.029 6.88399 60.8728 6.50002 60.8728 6.04447C60.8728 5.58891 61.029 5.21145 61.3414 4.91209C61.6666 4.59971 62.0703 4.44352 62.5518 4.44352C63.0335 4.44352 63.4303 4.59971 63.7427 4.91209C64.0682 5.21145 64.2308 5.58891 64.2308 6.04447C64.2308 6.50002 64.0682 6.88399 63.7427 7.19637C63.4303 7.49573 63.0335 7.64541 62.5518 7.64541ZM63.8989 8.93398V19.7501H61.1656V8.93398H63.8989Z" fill="var(--fill-0, white)"/>
<path id="Vector_8" d="M71.8124 8.77774C73.1008 8.77774 74.1421 9.18775 74.9362 10.0077C75.73 10.8147 76.1271 11.9471 76.1271 13.4048V19.75H73.3936V13.7759C73.3936 12.9167 73.179 12.2595 72.7495 11.8038C72.3198 11.3353 71.7342 11.1011 70.9923 11.1011C70.2373 11.1011 69.6386 11.3353 69.196 11.8038C68.7665 12.2595 68.5519 12.9167 68.5519 13.7759V19.75H65.8184V8.93393H68.5519V10.2811C68.9163 9.81249 69.3784 9.44805 69.9381 9.18775C70.5106 8.9144 71.1354 8.77774 71.8124 8.77774Z" fill="var(--fill-0, white)"/>
<path id="Vector_9" d="M88 14.1079C88 14.4982 87.974 14.8497 87.922 15.1621H80.0149C80.0798 15.943 80.3533 16.5547 80.8348 16.9973C81.3165 17.4399 81.9086 17.6611 82.6115 17.6611C83.6267 17.6611 84.3492 17.225 84.7787 16.353H87.7267C87.4144 17.3943 86.8156 18.2532 85.9304 18.9302C85.0455 19.5939 83.9586 19.9258 82.67 19.9258C81.6288 19.9258 80.6917 19.6981 79.8588 19.2426C79.0387 18.774 78.3944 18.1166 77.9258 17.2706C77.4703 16.4245 77.2424 15.4485 77.2424 14.342C77.2424 13.2227 77.4703 12.24 77.9258 11.394C78.3813 10.5479 79.0191 9.89714 79.8392 9.44159C80.659 8.98603 81.6029 8.75826 82.67 8.75826C83.6982 8.75826 84.616 8.97952 85.423 9.42206C86.2428 9.86461 86.8742 10.4959 87.3168 11.316C87.7723 12.1229 88 13.0534 88 14.1079ZM85.169 13.3269C85.1561 12.6239 84.9022 12.0643 84.4076 11.6477C83.9131 11.2182 83.3078 11.0036 82.592 11.0036C81.9152 11.0036 81.3425 11.2118 80.8739 11.6283C80.4184 12.0318 80.1385 12.5979 80.0343 13.3269H85.169Z" fill="var(--fill-0, white)"/>
</g>
</svg>
