<svg preserveAspectRatio="none" width="100%" height="100%" overflow="visible" style="display: block;" viewBox="0 0 67 24" fill="none" xmlns="http://www.w3.org/2000/svg">
<g id="github 2">
<path id="Vector" d="M8.263 2.5C3.698 2.5 0 6.238 0 10.852C0 14.548 2.365 17.669 5.65 18.776C6.063 18.849 6.218 18.598 6.218 18.379C6.218 18.181 6.207 17.523 6.207 16.823C4.131 17.21 3.594 16.312 3.429 15.842C3.336 15.602 2.933 14.861 2.583 14.662C2.293 14.506 1.88 14.12 2.572 14.109C3.223 14.099 3.687 14.715 3.843 14.966C4.586 16.229 5.774 15.873 6.249 15.654C6.321 15.112 6.538 14.746 6.776 14.537C4.937 14.328 3.016 13.609 3.016 10.414C3.016 9.505 3.336 8.754 3.863 8.169C3.781 7.96 3.491 7.104 3.945 5.956C3.945 5.956 4.638 5.736 6.218 6.812C6.891 6.623 7.586 6.528 8.284 6.53C8.986 6.53 9.689 6.624 10.349 6.812C11.929 5.726 12.622 5.956 12.622 5.956C13.077 7.104 12.787 7.96 12.705 8.169C13.231 8.754 13.551 9.495 13.551 10.414C13.551 13.619 11.62 14.328 9.781 14.537C10.081 14.798 10.339 15.3 10.339 16.082C10.339 17.199 10.329 18.098 10.329 18.379C10.329 18.598 10.484 18.859 10.897 18.776C12.536 18.217 13.961 17.152 14.973 15.729C15.982 14.309 16.525 12.603 16.526 10.852C16.526 6.238 12.829 2.5 8.263 2.5Z" fill="var(--fill-0, #B5BDC5)"/>
<path id="Vector_2" d="M40.326 15.4217H40.306C40.315 15.4217 40.321 15.4317 40.33 15.4317H40.335L40.326 15.4227V15.4207V15.4217ZM40.089 15.0847C39.999 15.0857 39.774 15.1337 39.536 15.1337C38.784 15.1337 38.523 14.7827 38.523 14.3247V11.2737H40.057C40.143 11.2737 40.21 11.1967 40.21 11.0887V9.4327C40.21 9.3447 40.133 9.2667 40.057 9.2667H38.523V7.2107C38.523 7.1327 38.475 7.0837 38.389 7.0837H36.306C36.219 7.0837 36.171 7.1327 36.171 7.2107V9.3247C36.171 9.3247 35.121 9.5887 35.053 9.5977C34.978 9.6167 34.926 9.6857 34.927 9.7637V11.0897C34.927 11.1967 35.005 11.2737 35.091 11.2737H36.162V14.4697C36.162 16.8477 37.801 17.0907 38.919 17.0907C39.43 17.0907 40.047 16.9257 40.143 16.8767C40.201 16.8567 40.23 16.7887 40.23 16.7207V15.2597C40.233 15.1737 40.173 15.0987 40.089 15.0837V15.0847ZM64.129 13.1107C64.129 11.3467 63.425 11.1127 62.683 11.1907C62.316 11.2227 61.96 11.3357 61.641 11.5227V14.9517C61.641 14.9517 62.114 15.2837 62.817 15.3027C63.811 15.3327 64.129 14.9717 64.129 13.1107ZM66.36 12.7247C66.36 16.0657 65.29 17.0217 63.42 17.0217C61.839 17.0217 60.991 16.2127 60.991 16.2127C60.991 16.2127 60.952 16.6607 60.904 16.7197C60.875 16.7777 60.827 16.7967 60.769 16.7967H59.342C59.246 16.7967 59.159 16.7187 59.159 16.6307L59.178 5.8057C59.178 5.7187 59.256 5.6407 59.342 5.6407H61.396C61.482 5.6407 61.56 5.7187 61.56 5.8057V9.4797C61.56 9.4797 62.35 8.9637 63.506 8.9637L63.497 8.9427C64.654 8.9427 66.36 9.3817 66.36 12.7247ZM57.58 9.3617H55.556C55.449 9.3617 55.392 9.4397 55.392 9.5467V14.8477C55.392 14.8477 54.862 15.2277 54.139 15.2277C53.416 15.2277 53.203 14.8957 53.203 14.1657V9.5367C53.2 9.4467 53.129 9.3737 53.04 9.3717H50.977C50.887 9.3737 50.815 9.4467 50.813 9.5367V14.5157C50.813 16.6607 51.999 17.1957 53.628 17.1957C54.968 17.1957 56.057 16.4447 56.057 16.4447C56.057 16.4447 56.105 16.8257 56.134 16.8837C56.154 16.9327 56.221 16.9717 56.289 16.9717H57.581C57.687 16.9717 57.744 16.8937 57.744 16.8057L57.764 9.5267C57.764 9.4387 57.687 9.3617 57.58 9.3617ZM33.876 9.3517H31.822C31.735 9.3517 31.658 9.4387 31.658 9.5457V16.6987C31.658 16.8937 31.783 16.9627 31.947 16.9627H33.798C33.991 16.9627 34.039 16.8747 34.039 16.6987V9.5177C34.036 9.4267 33.965 9.3547 33.876 9.3517ZM32.856 5.9147C32.504 5.9117 32.164 6.0517 31.914 6.3047C31.664 6.5577 31.524 6.9007 31.526 7.2587C31.526 8.0097 32.114 8.6037 32.857 8.6037C33.207 8.6037 33.542 8.4607 33.788 8.2087C34.035 7.9557 34.171 7.6147 34.168 7.2587C34.171 6.9037 34.034 6.5627 33.788 6.3107C33.542 6.0577 33.206 5.9157 32.856 5.9147ZM49.197 5.6607H47.163C47.074 5.6637 47.002 5.7357 46.999 5.8267V9.8107H43.808V5.8267C43.805 5.7357 43.734 5.6637 43.644 5.6607H41.591C41.502 5.6637 41.43 5.7357 41.427 5.8267V16.6517C41.427 16.7397 41.514 16.8177 41.591 16.8177H43.644C43.731 16.8177 43.808 16.7397 43.808 16.6517V12.0227H46.999L46.98 16.6517C46.98 16.7397 47.057 16.8177 47.144 16.8177H49.197C49.284 16.8177 49.361 16.7397 49.361 16.6517V5.8267C49.358 5.7357 49.286 5.6637 49.197 5.6607ZM30.119 10.4357V16.0287C30.119 16.0687 30.11 16.1367 30.061 16.1567C30.061 16.1567 28.856 17.0227 26.87 17.0227C24.47 17.0227 21.626 16.2637 21.626 11.2547C21.626 6.2467 24.113 5.2137 26.543 5.2237C28.644 5.2237 29.492 5.7007 29.628 5.7887C29.666 5.8377 29.686 5.8767 29.686 5.9247L29.28 7.6587C29.28 7.7467 29.194 7.8537 29.088 7.8247C28.741 7.7177 28.22 7.5037 26.996 7.5037C25.578 7.5037 24.056 7.9127 24.056 11.1377C24.056 14.3627 25.502 14.7427 26.542 14.7427C27.429 14.7427 27.748 14.6357 27.748 14.6357V12.3947H26.33C26.224 12.3947 26.148 12.3167 26.148 12.2297V10.4367C26.148 10.3487 26.224 10.2707 26.33 10.2707H29.936C30.042 10.2707 30.119 10.3487 30.119 10.4357Z" fill="var(--fill-0, #B5BDC5)"/>
</g>
</svg>
