<svg preserveAspectRatio="none" width="100%" height="100%" overflow="visible" style="display: block;" viewBox="0 0 18 18" fill="none" xmlns="http://www.w3.org/2000/svg">
<g id="discord_icon">
<path id="Vector" d="M14.544 3.995C13.506 3.526 12.411 3.191 11.288 3C11.267 2.996 11.246 3.005 11.235 3.024C11.086 3.29 10.951 3.564 10.83 3.844C9.617 3.663 8.385 3.663 7.172 3.844C7.05 3.563 6.912 3.289 6.76 3.024C6.749 3.006 6.729 2.997 6.708 3C5.583 3.19 4.488 3.525 3.451 3.994C3.442 3.998 3.435 4.004 3.43 4.012C1.355 7.062 0.787 10.036 1.066 12.973C1.067 12.988 1.075 13.001 1.086 13.01C2.297 13.892 3.648 14.563 5.082 14.997C5.103 15.003 5.125 14.996 5.138 14.979C5.447 14.567 5.72 14.129 5.955 13.671C5.965 13.652 5.961 13.628 5.945 13.613C5.94 13.608 5.934 13.604 5.928 13.601C5.497 13.439 5.08 13.243 4.68 13.016C4.665 13.008 4.656 12.992 4.655 12.975C4.654 12.958 4.661 12.942 4.675 12.932C4.758 12.87 4.842 12.806 4.922 12.742C4.936 12.73 4.957 12.727 4.974 12.734C7.593 13.911 10.427 13.911 13.015 12.734C13.023 12.73 13.033 12.729 13.042 12.73C13.051 12.731 13.06 12.734 13.067 12.74C13.147 12.805 13.231 12.87 13.316 12.932C13.329 12.942 13.337 12.958 13.336 12.975C13.335 12.992 13.326 13.007 13.311 13.016C12.913 13.246 12.495 13.441 12.063 13.601C12.049 13.606 12.038 13.616 12.033 13.63C12.028 13.643 12.029 13.658 12.036 13.67C12.276 14.126 12.548 14.563 12.852 14.978C12.864 14.996 12.887 15.004 12.908 14.998C14.344 14.565 15.697 13.893 16.91 13.01C16.922 13.001 16.93 12.988 16.931 12.973C17.265 9.578 16.372 6.628 14.565 4.013C14.561 4.004 14.554 3.997 14.545 3.993L14.544 3.995ZM6.346 11.185C5.558 11.185 4.909 10.473 4.909 9.599C4.909 8.724 5.546 8.012 6.346 8.012C7.154 8.012 7.797 8.731 7.785 9.599C7.785 10.473 7.147 11.185 6.346 11.185ZM11.663 11.185C10.875 11.185 10.225 10.473 10.225 9.599C10.225 8.724 10.862 8.012 11.663 8.012C12.47 8.012 13.113 8.731 13.101 9.599C13.101 10.473 12.47 11.185 11.663 11.185Z" fill="var(--fill-0, #B5BDC5)"/>
</g>
</svg>
