<svg preserveAspectRatio="none" width="100%" height="100%" overflow="visible" style="display: block;" viewBox="0 0 80 80" fill="none" xmlns="http://www.w3.org/2000/svg">
<g id="Logos / Figma">
<rect width="80" height="80" rx="24" fill="var(--fill-0, #141D1F)"/>
<g id="Logo Container">
</g>
<g id="airtable">
<path id="Vector" d="M38.0754 25.3788L24.6535 30.911C23.9071 31.2187 23.9149 32.275 24.6659 32.5716L38.1437 37.8957C39.3279 38.3635 40.6467 38.3635 41.8309 37.8957L55.3089 32.5714C56.0598 32.275 56.0679 31.2189 55.3211 30.9112L41.8997 25.3785C40.6752 24.8738 39.2997 24.8738 38.0752 25.3785" fill="var(--fill-0, #FCB400)"/>
<path id="Vector_2" d="M41.1831 40.803V54.1035C41.1831 54.7359 41.8235 55.1693 42.4138 54.9362L57.4322 49.1293C57.5997 49.0631 57.7434 48.9484 57.8446 48.7999C57.9459 48.6514 58 48.4761 57.9999 48.2966V34.9962C57.9999 34.3636 57.3596 33.9304 56.7692 34.1635L41.7508 39.9705C41.5834 40.0367 41.4397 40.1514 41.3385 40.2999C41.2373 40.4484 41.1831 40.6237 41.1831 40.8032" fill="var(--fill-0, #18BFFF)"/>
<path id="Vector_3" d="M37.6761 41.4877L33.2189 43.6315L32.7664 43.8494L23.3577 48.3402C22.7614 48.6268 22 48.1939 22 47.5339V35.0504C22 34.8116 22.1229 34.6055 22.2877 34.4504C22.3553 34.3833 22.4321 34.326 22.5156 34.2801C22.7403 34.1457 23.061 34.1099 23.3336 34.2173L37.6012 39.8487C38.3264 40.1353 38.3834 41.1476 37.6761 41.4879" fill="var(--fill-0, #F82B60)"/>
<path id="Vector_4" d="M37.6761 41.4877L33.2189 43.6315L22.2877 34.4502C22.3554 34.3832 22.4321 34.3259 22.5156 34.2801C22.7403 34.1457 23.061 34.1099 23.3336 34.2173L37.6012 39.8487C38.3264 40.1353 38.3834 41.1476 37.6761 41.4879" fill="var(--fill-0, black)" fill-opacity="0.25"/>
</g>
</g>
</svg>
