<svg preserveAspectRatio="none" width="100%" height="100%" overflow="visible" style="display: block;" viewBox="0 0 18 18" fill="none" xmlns="http://www.w3.org/2000/svg">
<g id="x">
<path id="Vector" d="M4 2C2.895 2 2 2.895 2 4V14C2 15.105 2.895 16 4 16H14C15.105 16 16 15.105 16 14V4C16 2.895 15.105 2 14 2H4ZM9.871 8.337L13 13H10.528L8.498 9.974L5.942 13H5L8.08 9.353L5.16 5H7.632L9.457 7.72L11.755 5H12.698L9.877 8.342L9.871 8.337ZM11.648 12.273L7.258 5.727H6.508L10.901 12.273H11.648Z" fill="var(--fill-0, #B5BDC5)"/>
</g>
</svg>
