<svg preserveAspectRatio="none" width="100%" height="100%" overflow="visible" style="display: block;" viewBox="0 0 108 21" fill="none" xmlns="http://www.w3.org/2000/svg">
<g id="Springfield-white 1" clip-path="url(#clip0_3301_350)">
<path id="Vector" d="M26.559 16.3855C26.0319 16.3855 25.4892 16.3328 24.9311 16.2274C24.3728 16.1281 23.855 16.0072 23.3775 15.8646C22.8999 15.7157 22.5216 15.5731 22.2425 15.4366L22.5216 12.9063C22.9557 13.1171 23.4085 13.3125 23.8798 13.4923C24.3511 13.6722 24.8349 13.8179 25.331 13.9296C25.8273 14.0412 26.3296 14.097 26.8381 14.097C27.4706 14.097 27.9794 13.973 28.3638 13.7249C28.7484 13.4768 28.9405 13.0985 28.9405 12.59C28.9405 12.1992 28.8321 11.886 28.6149 11.6504C28.398 11.4085 28.0661 11.1945 27.6196 11.0085C27.173 10.8162 26.6025 10.5991 25.9077 10.3572C25.2133 10.1154 24.59 9.8425 24.038 9.5386C23.486 9.2285 23.0487 8.83778 22.7263 8.36644C22.4038 7.89508 22.2425 7.29349 22.2425 6.56166C22.2425 5.84224 22.4193 5.20345 22.7728 4.64527C23.1263 4.0809 23.6534 3.64055 24.3543 3.32425C25.0613 3.00175 25.939 2.84049 26.987 2.84049C27.7807 2.84049 28.5374 2.93043 29.2569 3.11028C29.9764 3.28394 30.5904 3.47309 31.0989 3.67776L30.857 6.11514C30.1251 5.78642 29.4368 5.53834 28.7918 5.37088C28.1528 5.19723 27.5018 5.11041 26.8381 5.11041C26.1436 5.11041 25.6071 5.22514 25.2288 5.45462C24.8504 5.68408 24.6612 6.0283 24.6612 6.48724C24.6612 6.85317 24.7667 7.14775 24.9776 7.37101C25.1885 7.5943 25.4892 7.78655 25.88 7.94781C26.2706 8.10284 26.7389 8.2672 27.2847 8.44086C28.2273 8.73854 29.018 9.06724 29.657 9.42697C30.302 9.78048 30.7858 10.2115 31.1082 10.7201C31.4368 11.2224 31.6012 11.8457 31.6012 12.59C31.6012 12.9621 31.5422 13.3683 31.4245 13.8086C31.3066 14.2428 31.0742 14.6552 30.7268 15.0459C30.3795 15.4366 29.8709 15.7591 29.2012 16.0134C28.5374 16.2615 27.6568 16.3855 26.559 16.3855Z" fill="var(--fill-0, white)"/>
<path id="Vector_2" d="M33.1123 20.6277V6.82215H34.973L35.4194 8.36644L34.7311 8.12456C35.159 7.68421 35.624 7.3338 36.1266 7.07333C36.6289 6.80664 37.2429 6.67329 37.9686 6.67329C38.8802 6.67329 39.6462 6.89348 40.2662 7.3338C40.8864 7.77415 41.3547 8.36022 41.6711 9.09205C41.9935 9.82388 42.1547 10.6239 42.1547 11.4922C42.1547 12.3605 41.9935 13.1605 41.6711 13.8924C41.3547 14.6242 40.8864 15.2103 40.2662 15.6506C39.6462 16.0909 38.8802 16.3111 37.9686 16.3111C37.2429 16.3111 36.6536 16.2119 36.201 16.0134C35.7482 15.8149 35.2892 15.4986 34.8241 15.0645L35.4194 14.5994V20.6277H33.1123ZM37.615 14.4133C38.3035 14.4133 38.8368 14.1435 39.2151 13.604C39.5997 13.0582 39.7919 12.3543 39.7919 11.4922C39.7919 10.6239 39.5997 9.92002 39.2151 9.38044C38.8368 8.84088 38.3035 8.57108 37.615 8.57108C37.0817 8.57108 36.6444 8.69513 36.3033 8.94321C35.9621 9.19129 35.711 9.5355 35.5498 9.97582C35.3884 10.41 35.3079 10.9154 35.3079 11.4922C35.3079 12.069 35.3884 12.5775 35.5498 13.0179C35.711 13.452 35.9621 13.7931 36.3033 14.0412C36.6444 14.2893 37.0817 14.4133 37.615 14.4133Z" fill="var(--fill-0, white)"/>
<path id="Vector_3" d="M43.7599 16.125V6.82215H45.918L45.974 7.80826C46.2097 7.54777 46.5413 7.28729 46.9694 7.0268C47.3972 6.76633 47.8655 6.63608 48.3741 6.63608C48.523 6.63608 48.6594 6.6485 48.7834 6.67329L48.616 8.94321C48.4795 8.906 48.3431 8.88119 48.2066 8.86879C48.0764 8.85637 47.9462 8.85017 47.8158 8.85017C47.4252 8.85017 47.0686 8.94011 46.746 9.11996C46.4236 9.29982 46.1972 9.51998 46.067 9.78048V16.125H43.7599Z" fill="var(--fill-0, white)"/>
<path id="Vector_4" d="M49.9013 16.125V6.82215H52.2084V16.125H49.9013ZM49.9013 5.40809V3.10099H52.2084V5.40809H49.9013Z" fill="var(--fill-0, white)"/>
<path id="Vector_5" d="M54.3709 16.125V6.82215H56.5293L56.6223 8.55249L56.0828 7.84547C56.4361 7.54777 56.858 7.278 57.348 7.03612C57.8378 6.79424 58.4083 6.67329 59.0596 6.67329C60.2504 6.67329 61.1342 7.07023 61.711 7.86407C62.2878 8.65173 62.5762 9.67504 62.5762 10.934V16.125H60.2691V11.1201C60.2691 10.2518 60.1232 9.60992 59.8318 9.19438C59.5464 8.77885 59.0783 8.57108 58.4271 8.57108C57.8998 8.57108 57.4687 8.70133 57.1339 8.9618C56.799 9.2161 56.5044 9.55719 56.2502 9.98514L56.678 8.85017V16.125H54.3709Z" fill="var(--fill-0, white)"/>
<path id="Vector_6" d="M68.3208 20.8137C67.4526 20.8137 66.6929 20.7052 66.0417 20.4881C65.3967 20.2772 64.8944 19.9734 64.5345 19.5764C64.1809 19.1795 64.0042 18.7051 64.0042 18.1531C64.0042 17.6879 64.1314 17.2724 64.3856 16.9065C64.6462 16.5468 65.0213 16.2305 65.5114 15.9576C65.2632 15.8087 65.0648 15.6227 64.9159 15.3994C64.7672 15.1762 64.6927 14.9219 64.6927 14.6366C64.6927 14.3389 64.7764 14.0815 64.9438 13.8644C65.1175 13.6412 65.3439 13.4644 65.6231 13.3342C65.1515 12.9993 64.7949 12.5713 64.5532 12.0504C64.3113 11.5232 64.1904 10.9526 64.1904 10.3387C64.1904 9.66885 64.3361 9.05484 64.6275 8.49666C64.9191 7.93229 65.3439 7.48264 65.902 7.14775C66.4665 6.80664 67.155 6.63608 67.9674 6.63608C68.389 6.63608 68.7766 6.68881 69.1302 6.79424C69.4898 6.89967 69.8092 7.04542 70.0883 7.23147C70.2745 7.12603 70.5441 7.03302 70.8977 6.95238C71.2513 6.86556 71.6452 6.82215 72.0792 6.82215C72.1847 6.82215 72.2839 6.82215 72.3769 6.82215C72.4761 6.82215 72.5753 6.82215 72.6745 6.82215L72.5258 8.2734C72.3894 8.2734 72.2497 8.2734 72.107 8.2734C71.9706 8.2734 71.8311 8.2734 71.6884 8.2734C71.6327 8.2734 71.5582 8.2734 71.4652 8.2734C71.3723 8.2734 71.2728 8.2796 71.1676 8.292C71.3535 8.57731 71.493 8.8967 71.5862 9.25021C71.6792 9.60372 71.7256 9.96653 71.7256 10.3387C71.7256 11.0085 71.5799 11.6255 71.2886 12.1899C71.0032 12.7481 70.5814 13.1977 70.0233 13.5389C69.4651 13.8737 68.7798 14.0412 67.9674 14.0412C67.7937 14.0412 67.6263 14.0288 67.4648 14.004C67.3037 13.9792 67.1425 13.9482 66.9813 13.911C66.8448 13.9668 66.7766 14.066 66.7766 14.2087C66.7766 14.3761 66.8788 14.5032 67.0835 14.5901C67.2882 14.6769 67.6075 14.7544 68.0416 14.8226L69.6417 15.0273C70.6403 15.1576 71.4218 15.4397 71.9861 15.8739C72.5568 16.308 72.842 16.9251 72.842 17.7252C72.842 18.3453 72.6623 18.8849 72.3024 19.3439C71.949 19.809 71.4343 20.1687 70.7583 20.423C70.0821 20.6835 69.2696 20.8137 68.3208 20.8137ZM68.414 19.0648C69.1954 19.0648 69.7877 18.9686 70.1908 18.7764C70.5938 18.5841 70.7953 18.2895 70.7953 17.8926C70.7953 17.5391 70.6528 17.2786 70.3674 17.1112C70.0883 16.9437 69.6417 16.8135 69.0277 16.7204L66.9905 16.4228C66.6866 16.5406 66.4323 16.7018 66.2276 16.9065C66.0229 17.1174 65.9207 17.3902 65.9207 17.7252C65.9207 18.1779 66.1409 18.5128 66.5812 18.7299C67.0215 18.9531 67.6325 19.0648 68.414 19.0648ZM67.9674 12.3295C68.5192 12.3295 68.9348 12.1496 69.2139 11.7899C69.4993 11.424 69.6417 10.9402 69.6417 10.3387C69.6417 9.73085 69.4993 9.24711 69.2139 8.88738C68.9348 8.52768 68.5192 8.34782 67.9674 8.34782C67.4091 8.34782 66.9873 8.52768 66.7021 8.88738C66.4168 9.24711 66.2741 9.73085 66.2741 10.3387C66.2741 10.9402 66.4168 11.424 66.7021 11.7899C66.9873 12.1496 67.4091 12.3295 67.9674 12.3295Z" fill="var(--fill-0, white)"/>
<path id="Vector_7" d="M74.5161 16.125V8.71995H73.1951L73.3998 6.82215H74.5161V4.84994C74.5161 4.03127 74.758 3.38008 75.2418 2.89632C75.7316 2.41256 76.4325 2.17069 77.3442 2.17069C77.6418 2.17069 77.9147 2.1862 78.1629 2.21721C78.417 2.24822 78.6467 2.28853 78.8513 2.33814L78.6467 4.19873C78.5535 4.16771 78.4512 4.14602 78.3395 4.1336C78.2281 4.11501 78.0884 4.10569 77.921 4.10569C77.5861 4.10569 77.3194 4.19563 77.121 4.37548C76.9224 4.55533 76.8231 4.84994 76.8231 5.25925V6.82215H78.8698V8.71995H76.8231V16.125H74.5161Z" fill="var(--fill-0, white)"/>
<path id="Vector_8" d="M80.4991 16.125V6.82215H82.8062V16.125H80.4991ZM80.4991 5.40809V3.10099H82.8062V5.40809H80.4991Z" fill="var(--fill-0, white)"/>
<path id="Vector_9" d="M89.4529 16.3111C88.3304 16.3111 87.3937 16.0878 86.6433 15.6413C85.8991 15.1886 85.3408 14.5932 84.9687 13.8552C84.5966 13.1109 84.4107 12.2984 84.4107 11.4178C84.4107 10.5681 84.5844 9.78358 84.9315 9.06414C85.2851 8.34472 85.7999 7.76795 86.4759 7.3338C87.1518 6.89348 87.9768 6.67329 88.9504 6.67329C89.8435 6.67329 90.5877 6.85627 91.1832 7.22217C91.7785 7.58808 92.2251 8.07803 92.5227 8.69203C92.8206 9.29982 92.9693 9.97272 92.9693 10.7108C92.9693 10.9154 92.957 11.1232 92.932 11.3341C92.9073 11.5387 92.8701 11.7527 92.8206 11.976H86.8107C86.8977 12.5527 87.0774 13.021 87.3503 13.3807C87.6294 13.7342 87.9675 13.9947 88.3644 14.1621C88.7674 14.3296 89.1985 14.4133 89.6576 14.4133C90.1971 14.4133 90.6994 14.3451 91.1645 14.2087C91.6298 14.066 92.0576 13.8799 92.4482 13.6505L92.5599 15.6041C92.2066 15.7902 91.7662 15.9545 91.239 16.0971C90.7119 16.2398 90.1164 16.3111 89.4529 16.3111ZM86.8667 10.4131H90.625C90.625 10.134 90.5722 9.8549 90.4668 9.57581C90.3613 9.29052 90.1846 9.05174 89.9365 8.85949C89.6946 8.66722 89.366 8.57108 88.9504 8.57108C88.3551 8.57108 87.8868 8.74474 87.5457 9.09205C87.2046 9.43936 86.9782 9.87971 86.8667 10.4131Z" fill="var(--fill-0, white)"/>
<path id="Vector_10" d="M96.9257 16.3111C96.3739 16.3111 95.9211 16.2026 95.5675 15.9855C95.2202 15.7622 94.963 15.4677 94.7953 15.1017C94.6279 14.7296 94.5442 14.3203 94.5442 13.8737V2.17069H96.8515V12.9248C96.8515 13.421 96.8792 13.7745 96.9352 13.9854C96.9972 14.19 97.1087 14.3141 97.2701 14.3575C97.4313 14.3947 97.6639 14.4133 97.9678 14.4133L97.7631 16.3111H96.9257Z" fill="var(--fill-0, white)"/>
<path id="Vector_11" d="M103.1 16.3111C102.157 16.3111 101.363 16.0909 100.718 15.6506C100.079 15.2103 99.5954 14.6242 99.2666 13.8924C98.9442 13.1605 98.783 12.3605 98.783 11.4922C98.783 10.6239 98.9442 9.82388 99.2666 9.09205C99.5954 8.36022 100.079 7.77415 100.718 7.3338C101.363 6.89348 102.157 6.67329 103.1 6.67329C103.782 6.67329 104.359 6.78804 104.83 7.0175C105.301 7.24079 105.717 7.52917 106.076 7.88268L105.518 8.36644V2.17069H107.825V16.125H105.649L105.537 14.5436L106.207 15.0273C105.772 15.4242 105.323 15.7374 104.858 15.9669C104.393 16.1964 103.807 16.3111 103.1 16.3111ZM103.434 14.4133C103.943 14.4133 104.359 14.2893 104.681 14.0412C105.004 13.7931 105.242 13.452 105.397 13.0179C105.552 12.5775 105.63 12.069 105.63 11.4922C105.63 10.9154 105.552 10.41 105.397 9.97582C105.242 9.5355 105.004 9.19129 104.681 8.94321C104.359 8.69513 103.943 8.57108 103.434 8.57108C102.951 8.57108 102.538 8.69513 102.197 8.94321C101.856 9.19129 101.595 9.5355 101.416 9.97582C101.236 10.41 101.146 10.9154 101.146 11.4922C101.146 12.069 101.236 12.5775 101.416 13.0179C101.595 13.452 101.856 13.7931 102.197 14.0412C102.538 14.2893 102.951 14.4133 103.434 14.4133Z" fill="var(--fill-0, white)"/>
<path id="Vector_12" d="M9.92314 9.9231C14.7185 9.9231 18.6059 9.9231 18.6059 9.9231C18.6059 14.7184 14.7185 18.6058 9.92314 18.6058C9.92314 18.6058 9.92314 13.6443 9.92314 9.9231Z" fill="var(--fill-0, white)"/>
<path id="Vector_13" d="M18.6058 8.68272C13.8105 8.68272 9.92309 8.68272 9.92309 8.68272C9.92309 3.88738 13.8105 0 18.6058 0C18.6058 0 18.6058 4.96155 18.6058 8.68272Z" fill="var(--fill-0, white)"/>
<path id="Vector_14" d="M8.68271 9.9231C8.68271 14.7184 8.68271 18.6058 8.68271 18.6058C3.88738 18.6058 4.63565e-08 14.7184 1.0354e-07 9.9231C1.0354e-07 9.9231 4.96155 9.9231 8.68271 9.9231Z" fill="var(--fill-0, white)"/>
<path id="Vector_15" d="M1.03608e-07 8.68272C4.64862e-08 3.88738 0 0 0 0C4.79533 -5.71838e-08 8.68271 3.88738 8.68271 8.68272C8.68271 8.68272 3.72116 8.68272 1.03608e-07 8.68272Z" fill="var(--fill-0, white)"/>
</g>
<defs>
<clipPath id="clip0_3301_350">
<rect width="108" height="20.8137" fill="white"/>
</clipPath>
</defs>
</svg>
