<svg preserveAspectRatio="none" width="100%" height="100%" overflow="visible" style="display: block;" viewBox="0 0 70 19" fill="none" xmlns="http://www.w3.org/2000/svg">
<g id="Group">
<g id="Vector">
</g>
<path id="Vector_2" d="M21.797 9.134C21.797 12.241 23.79 14.406 26.552 14.406C29.314 14.406 31.308 12.241 31.308 9.134C31.308 6.028 29.314 3.861 26.552 3.861C23.79 3.861 21.797 6.028 21.797 9.134ZM29.486 9.134C29.486 11.357 28.275 12.797 26.552 12.797C24.83 12.797 23.62 11.357 23.62 9.134C23.62 6.911 24.83 5.472 26.552 5.472C28.275 5.472 29.486 6.911 29.486 9.134ZM36.439 14.407C38.533 14.407 39.729 12.64 39.729 10.517C39.729 8.393 38.533 6.626 36.439 6.626C35.472 6.626 34.76 7.011 34.29 7.567V6.769H32.581V16.815H34.29V13.466C34.76 14.023 35.472 14.407 36.439 14.407ZM34.247 10.303C34.247 8.892 35.044 8.123 36.098 8.123C37.337 8.123 38.006 9.092 38.006 10.517C38.006 11.942 37.337 12.911 36.098 12.911C35.045 12.911 34.247 12.127 34.247 10.745V10.303ZM44.352 14.407C45.847 14.407 47.028 13.623 47.556 12.312L46.089 11.756C45.862 12.526 45.192 12.953 44.352 12.953C43.256 12.953 42.487 12.17 42.359 10.887H47.599V10.317C47.599 8.265 46.445 6.626 44.281 6.626C42.117 6.626 40.722 8.323 40.722 10.517C40.722 12.825 42.217 14.407 44.352 14.407ZM44.267 8.066C45.348 8.066 45.862 8.778 45.875 9.605H42.444C42.701 8.594 43.384 8.066 44.267 8.066ZM48.88 14.25H50.589V9.861C50.589 8.792 51.372 8.222 52.14 8.222C53.08 8.222 53.45 8.892 53.45 9.818V14.25H55.159V9.32C55.159 7.709 54.219 6.626 52.653 6.626C51.685 6.626 51.016 7.068 50.589 7.567V6.769H48.88V14.25ZM60.163 4.019L56.29 14.25H58.098L58.967 11.913H63.381L64.263 14.25H66.1L62.227 4.019H60.163ZM61.159 6.042L62.783 10.317H59.565L61.159 6.042ZM69.032 4.048H67.21V14.28H69.032V4.048ZM17.622 7.777C18.053 6.482 17.905 5.066 17.216 3.888C16.183 2.084 14.099 1.156 12.064 1.592C11.161 0.572 9.861 -0.008 8.497 0C6.416 -0.003 4.572 1.337 3.935 3.314C2.598 3.589 1.445 4.426 0.772 5.611C-0.271 7.411 -0.034 9.678 1.361 11.224C0.93 12.518 1.078 13.934 1.767 15.112C2.8 16.916 4.884 17.845 6.918 17.408C7.822 18.428 9.123 19.009 10.486 19C12.568 19.004 14.413 17.663 15.05 15.684C16.386 15.409 17.539 14.572 18.212 13.388C19.255 11.587 19.017 9.321 17.623 7.776L17.622 7.777ZM10.486 17.758C9.654 17.759 8.848 17.467 8.21 16.934C8.248 16.914 8.285 16.893 8.322 16.871L12.102 14.686C12.295 14.575 12.414 14.369 12.412 14.147V8.813L14.01 9.736C14.027 9.745 14.039 9.761 14.041 9.78V14.198C14.041 16.16 12.451 17.752 10.486 17.758ZM2.845 14.49C2.428 13.769 2.277 12.925 2.42 12.105C2.449 12.121 2.498 12.152 2.532 12.172L6.312 14.357C6.504 14.47 6.742 14.47 6.933 14.357L11.548 11.691V13.536C11.549 13.555 11.541 13.574 11.526 13.586L7.705 15.794C6.887 16.265 5.916 16.392 5.005 16.147C4.094 15.903 3.317 15.307 2.846 14.491L2.845 14.49ZM1.849 6.233C2.263 5.512 2.918 4.959 3.7 4.672L3.698 4.802V9.173C3.697 9.395 3.815 9.601 4.008 9.711L8.623 12.378L7.026 13.301C7.01 13.312 6.989 13.313 6.971 13.306L3.151 11.095C1.451 10.107 0.87 7.935 1.849 6.233ZM14.974 9.29L10.359 6.623L11.956 5.7C11.973 5.689 11.993 5.687 12.011 5.695L15.832 7.903C17.535 8.89 18.117 11.066 17.134 12.769C16.719 13.489 16.064 14.041 15.283 14.329V9.828C15.285 9.606 15.167 9.401 14.975 9.29H14.974ZM16.564 6.895C16.527 6.872 16.49 6.849 16.452 6.827L12.671 4.642C12.48 4.53 12.243 4.53 12.051 4.642L7.436 7.31V5.464C7.435 5.445 7.443 5.426 7.459 5.414L11.28 3.208C12.097 2.736 13.069 2.608 13.981 2.854C14.892 3.099 15.669 3.696 16.139 4.514C16.553 5.233 16.704 6.076 16.564 6.895ZM6.567 10.186L4.969 9.263C4.952 9.255 4.941 9.238 4.939 9.218V4.801C4.938 2.837 6.532 1.244 8.499 1.243C9.33 1.243 10.134 1.534 10.773 2.066C10.735 2.087 10.697 2.108 10.66 2.13L6.88 4.315C6.687 4.425 6.568 4.631 6.57 4.853L6.568 10.184V10.185L6.567 10.186ZM7.436 8.313L9.491 7.126L11.547 8.313V10.688L9.491 11.876L7.436 10.688V8.313Z" fill="var(--fill-0, #B5BDC5)"/>
</g>
</svg>
