<svg preserveAspectRatio="none" width="100%" height="100%" overflow="visible" style="display: block;" viewBox="0 0 32 32" fill="none" xmlns="http://www.w3.org/2000/svg">
<g id="google">
<path id="Vector" d="M31.9999 16.3832C31.9999 15.3026 31.8932 14.1872 31.7154 13.1414H16.3149V19.3112H25.1355C24.7798 21.2981 23.6061 23.041 21.8634 24.1564L27.1273 28.165C30.2216 25.3416 31.9999 21.2284 31.9999 16.3832Z" fill="var(--fill-0, #4280EF)"/>
<path id="Vector_2" d="M16.3176 31.9996C20.7279 31.9996 24.4268 30.5705 27.1299 28.1305L21.866 24.1567C20.4077 25.1327 18.5227 25.6904 16.3176 25.6904C12.0495 25.6904 8.45727 22.867 7.14129 19.1023L1.73513 23.1807C4.50934 28.5836 10.1289 31.9996 16.3176 31.9996Z" fill="var(--fill-0, #34A353)"/>
<path id="Vector_3" d="M7.14005 19.0675C6.46428 17.0807 6.46428 14.9195 7.14005 12.9326L1.73389 8.8194C-0.577962 13.3509 -0.577962 18.6841 1.73389 23.1807L7.14005 19.0675Z" fill="var(--fill-0, #F6B704)"/>
<path id="Vector_4" d="M16.3176 6.34469C18.6294 6.30983 20.9057 7.18127 22.5773 8.74986L27.2366 4.14866C24.2845 1.42977 20.3722 -0.0342492 16.3176 0.000608366C10.1289 0.000608366 4.50934 3.41665 1.73513 8.81958L7.14129 12.9328C8.45727 9.1333 12.0495 6.34469 16.3176 6.34469Z" fill="var(--fill-0, #E54335)"/>
</g>
</svg>
