<svg preserveAspectRatio="none" width="100%" height="100%" overflow="visible" style="display: block;" viewBox="0 0 24 24" fill="none" xmlns="http://www.w3.org/2000/svg">
<g id="ShieldCheck 1">
<path id="Vector" opacity="0.2" d="M20.25 5.25V10.76C20.25 18.652 13.565 21.266 12.23 21.71C12.081 21.7614 11.919 21.7614 11.77 21.71C10.435 21.268 3.75 18.656 3.75 10.762V5.25C3.75 5.05109 3.82902 4.86032 3.96967 4.71967C4.11032 4.57902 4.30109 4.5 4.5 4.5H19.5C19.6989 4.5 19.8897 4.57902 20.0303 4.71967C20.171 4.86032 20.25 5.05109 20.25 5.25Z" fill="var(--fill-0, #ADFF85)"/>
<path id="Vector_2" d="M19.5 3.75H4.5C4.10218 3.75 3.72064 3.90804 3.43934 4.18934C3.15804 4.47064 3 4.85218 3 5.25V10.76C3 19.162 10.108 21.949 11.531 22.422C11.835 22.526 12.165 22.526 12.469 22.422C13.894 21.95 21 19.162 21 10.761V5.25C21 4.85218 20.842 4.47064 20.5607 4.18934C20.2794 3.90804 19.8978 3.75 19.5 3.75ZM19.5 10.762C19.5 18.113 13.28 20.57 12 20.997C10.732 20.574 4.5 18.12 4.5 10.762V5.25H19.5V10.762ZM7.72 13.28C7.65027 13.2104 7.59493 13.1277 7.55714 13.0368C7.51935 12.9458 7.49985 12.8482 7.49976 12.7497C7.49967 12.6512 7.51898 12.5536 7.5566 12.4625C7.59422 12.3715 7.6494 12.2887 7.719 12.219C7.7886 12.1493 7.87125 12.0939 7.96224 12.0561C8.05323 12.0184 8.15077 11.9989 8.24929 11.9988C8.34782 11.9987 8.44539 12.018 8.53645 12.0556C8.62751 12.0932 8.71027 12.1484 8.78 12.218L10.5 13.938L15.22 9.218C15.3628 9.08771 15.5504 9.01753 15.7437 9.02206C15.937 9.02659 16.1211 9.10548 16.2576 9.24232C16.3942 9.37915 16.4728 9.56339 16.4769 9.75667C16.4811 9.94996 16.4106 10.1374 16.28 10.28L11.03 15.53C10.9606 15.5999 10.878 15.6554 10.787 15.6932C10.6961 15.7311 10.5985 15.7506 10.5 15.7506C10.4015 15.7506 10.3039 15.7311 10.213 15.6932C10.122 15.6554 10.0394 15.5999 9.97 15.53L7.72 13.28Z" fill="var(--fill-0, #ADFF85)"/>
</g>
</svg>
