<svg preserveAspectRatio="none" width="100%" height="100%" overflow="visible" style="display: block;" viewBox="0 0 21 21" fill="none" xmlns="http://www.w3.org/2000/svg">
<g id="logo 1" clip-path="url(#clip0_3301_876)">
<path id="Vector" d="M15.75 0H5.25C3.85761 0 2.52226 0.553123 1.53769 1.53769C0.553123 2.52226 0 3.85761 0 5.25L0 15.75C0 17.1424 0.553123 18.4777 1.53769 19.4623C2.52226 20.4469 3.85761 21 5.25 21H15.75C17.1424 21 18.4777 20.4469 19.4623 19.4623C20.4469 18.4777 21 17.1424 21 15.75V5.25C21 3.85761 20.4469 2.52226 19.4623 1.53769C18.4777 0.553123 17.1424 0 15.75 0ZM7.907 12.043C7.9834 12.1154 8.04451 12.2024 8.08674 12.2988C8.12897 12.3952 8.15145 12.4991 8.15286 12.6044C8.15427 12.7096 8.13458 12.8141 8.09495 12.9116C8.05533 13.0091 7.99656 13.0977 7.92213 13.1721C7.8477 13.2466 7.75912 13.3053 7.6616 13.345C7.56409 13.3846 7.45962 13.4043 7.35437 13.4029C7.24912 13.4015 7.14522 13.379 7.04881 13.3367C6.95239 13.2945 6.86541 13.2334 6.793 13.157L4.693 11.057C4.61977 10.9839 4.56167 10.8971 4.52203 10.8015C4.48239 10.7059 4.46199 10.6035 4.46199 10.5C4.46199 10.3965 4.48239 10.2941 4.52203 10.1985C4.56167 10.1029 4.61977 10.0161 4.693 9.943L6.793 7.843C6.94203 7.70175 7.14031 7.62425 7.34563 7.627C7.55094 7.62976 7.74707 7.71254 7.89227 7.85773C8.03746 8.00293 8.12024 8.19906 8.123 8.40437C8.12575 8.60969 8.04825 8.80797 7.907 8.957L6.364 10.5L7.907 12.043ZM12.307 7.041L10.207 14.391C10.1497 14.5918 10.015 14.7616 9.83254 14.863C9.65007 14.9645 9.43477 14.9893 9.234 14.932C9.03323 14.8747 8.86344 14.74 8.76198 14.5575C8.66053 14.3751 8.63571 14.1598 8.693 13.959L10.793 6.609C10.8176 6.50544 10.8629 6.40793 10.9263 6.32237C10.9896 6.23681 11.0696 6.16497 11.1614 6.11118C11.2533 6.05738 11.3551 6.02276 11.4607 6.00939C11.5663 5.99602 11.6735 6.00419 11.7759 6.0334C11.8782 6.0626 11.9736 6.11224 12.0563 6.17933C12.1389 6.24641 12.2071 6.32954 12.2567 6.42371C12.3064 6.51787 12.3364 6.62111 12.3451 6.72721C12.3537 6.8333 12.3408 6.94005 12.307 7.041ZM16.307 11.057L14.207 13.157C14.1339 13.2301 14.047 13.2882 13.9514 13.3278C13.8559 13.3673 13.7534 13.3877 13.65 13.3877C13.5466 13.3877 13.4441 13.3673 13.3486 13.3278C13.253 13.2882 13.1661 13.2301 13.093 13.157C13.0199 13.0839 12.9618 12.997 12.9222 12.9014C12.8827 12.8059 12.8623 12.7034 12.8623 12.6C12.8623 12.4966 12.8827 12.3941 12.9222 12.2986C12.9618 12.203 13.0199 12.1161 13.093 12.043L14.636 10.5L13.093 8.957C13.0199 8.88385 12.9618 8.79702 12.9222 8.70145C12.8827 8.60588 12.8623 8.50344 12.8623 8.4C12.8623 8.29656 12.8827 8.19412 12.9222 8.09855C12.9618 8.00298 13.0199 7.91615 13.093 7.843C13.1661 7.76985 13.253 7.71183 13.3486 7.67224C13.4441 7.63266 13.5466 7.61228 13.65 7.61228C13.7534 7.61228 13.8559 7.63266 13.9514 7.67224C14.047 7.71183 14.1339 7.76985 14.207 7.843L16.307 9.943C16.3802 10.0161 16.4383 10.1029 16.478 10.1985C16.5176 10.2941 16.538 10.3965 16.538 10.5C16.538 10.6035 16.5176 10.7059 16.478 10.8015C16.4383 10.8971 16.3802 10.9839 16.307 11.057Z" fill="var(--fill-0, white)"/>
</g>
<defs>
<clipPath id="clip0_3301_876">
<rect width="21" height="21" fill="white"/>
</clipPath>
</defs>
</svg>
