<svg preserveAspectRatio="none" width="100%" height="100%" overflow="visible" style="display: block;" viewBox="0 0 24 36" fill="none" xmlns="http://www.w3.org/2000/svg">
<g id="figma">
<path id="Vector" d="M6.00722 36.0007C9.31674 36.0007 12.0034 33.3133 12.0034 30.0028V24.0049H6.00722C2.6977 24.0049 0.0110703 26.6923 0.0110703 30.0028C0.0110703 33.3133 2.6977 36.0007 6.00722 36.0007Z" fill="var(--fill-0, #0ACF83)"/>
<path id="Vector_2" d="M2.28882e-05 17.9999C2.28882e-05 14.6894 2.68665 12.002 5.99617 12.002H11.9923V24.0041H5.99617C2.68665 24.0041 2.28882e-05 21.3167 2.28882e-05 18.0062V17.9999Z" fill="var(--fill-0, #A259FF)"/>
<path id="Vector_3" d="M0 5.99792C0 2.68742 2.68663 0 5.99615 0H11.9923V12.0021H5.99615C2.68663 12.0021 0 9.31471 0 6.00421V5.99792Z" fill="var(--fill-0, #F24E1E)"/>
<path id="Vector_4" d="M11.9448 -5.22688e-05H17.941C21.2505 -5.22688e-05 23.9371 2.68737 23.9371 5.99787C23.9371 9.30837 21.2505 11.9958 17.941 11.9958H11.9448V-5.22688e-05Z" fill="var(--fill-0, #FF7262)"/>
<path id="Vector_5" d="M24.0001 17.9999C24.0001 21.3104 21.3134 23.9978 18.0039 23.9978C14.6944 23.9978 11.9448 21.3104 11.9448 17.9999C11.9448 14.6894 14.6315 12.002 17.941 12.002C21.2505 12.002 23.9371 14.6894 23.9371 17.9999H24.0001Z" fill="var(--fill-0, #1ABCFE)"/>
</g>
</svg>
