<svg preserveAspectRatio="none" width="100%" height="100%" overflow="visible" style="display: block;" viewBox="0 0 243 260" fill="none" xmlns="http://www.w3.org/2000/svg">
<g id="Left">
<rect id="Rectangle 34" y="127" width="243" height="6" fill="url(#paint0_linear_3301_513)"/>
<path id="Vector 71" d="M0 3H25.9438C85.3153 3 135.706 53.4612 176.618 98.4374C187.981 110.929 198.249 118.913 207.21 124.012C214.447 128.13 222.674 130 231 130V130" stroke="url(#paint1_linear_3301_513)" stroke-width="6"/>
<path id="Vector 72" d="M0 257H25.9438C85.3153 257 135.706 206.539 176.618 161.563C187.981 149.071 198.249 141.087 207.21 135.988C214.447 131.87 222.674 130 231 130V130" stroke="url(#paint2_linear_3301_513)" stroke-width="6"/>
</g>
<defs>
<linearGradient id="paint0_linear_3301_513" x1="9.46985" y1="130" x2="221.594" y2="137.642" gradientUnits="userSpaceOnUse">
<stop stop-color="#141D1F" stop-opacity="0"/>
<stop offset="1" stop-color="#141D1F"/>
</linearGradient>
<linearGradient id="paint1_linear_3301_513" x1="-3.0367e-06" y1="-2" x2="203.804" y2="124.105" gradientUnits="userSpaceOnUse">
<stop stop-color="#141D1F" stop-opacity="0"/>
<stop offset="1" stop-color="#141D1F"/>
</linearGradient>
<linearGradient id="paint2_linear_3301_513" x1="-3.0367e-06" y1="262" x2="203.804" y2="135.895" gradientUnits="userSpaceOnUse">
<stop stop-color="#141D1F" stop-opacity="0"/>
<stop offset="1" stop-color="#141D1F"/>
</linearGradient>
</defs>
</svg>
