<svg preserveAspectRatio="none" width="100%" height="100%" overflow="visible" style="display: block;" viewBox="0 0 36 22" fill="none" xmlns="http://www.w3.org/2000/svg">
<g id="monday">
<path id="Vector" d="M4.48751 22C3.69006 22.0017 2.90643 21.7881 2.21669 21.381C1.52695 20.9739 0.955822 20.3879 0.561643 19.6827C0.1735 18.9826 -0.0200778 18.1882 0.00164672 17.3847C0.0233713 16.5813 0.259579 15.7989 0.68497 15.1215L8.76966 2.2078C9.18345 1.51377 9.77091 0.943884 10.4721 0.556363C11.1733 0.168845 11.963 -0.0224243 12.7606 0.00209277C13.5576 0.0215207 14.3352 0.255991 15.0139 0.68151C15.6926 1.10703 16.2479 1.70832 16.6231 2.42384C17.3767 3.87341 17.2826 5.61742 16.3799 6.97813L8.30034 19.8918C7.89058 20.5412 7.32634 21.0749 6.65981 21.4435C5.99328 21.812 5.24611 22.0034 4.48751 22Z" fill="var(--fill-0, #F62B54)"/>
<path id="Vector_2" d="M18.415 22C16.7843 22 15.2838 21.1131 14.4959 19.6879C14.1086 18.9897 13.9154 18.1974 13.9372 17.3959C13.9588 16.5945 14.1946 15.8142 14.6192 15.1387L22.6888 2.25434C23.0965 1.55053 23.6819 0.970472 24.3843 0.574346C25.0867 0.178221 25.8805 -0.0195573 26.6833 0.00152547C28.3277 0.0381142 29.818 0.973735 30.5717 2.43728C31.3202 3.90082 31.2106 5.65534 30.2805 7.0126L22.2126 19.897C21.8041 20.5437 21.2421 21.0753 20.5784 21.4428C19.9147 21.8104 19.1707 22.002 18.415 22Z" fill="var(--fill-0, #FFCC00)"/>
<path id="Vector_3" d="M31.7902 22.0001C34.1152 22.0001 35.9999 20.1366 35.9999 17.838C35.9999 15.5392 34.1152 13.6758 31.7902 13.6758C29.4653 13.6758 27.5806 15.5392 27.5806 17.838C27.5806 20.1366 29.4653 22.0001 31.7902 22.0001Z" fill="var(--fill-0, #00CA72)"/>
</g>
</svg>
